<svg xmlns="http://www.w3.org/2000/svg" xmlns:xlink="http://www.w3.org/1999/xlink" enable-background="new 0 0 800 600" viewBox="0 0 800 600"><circle cx="399.5" cy="296.8" r="256.7" fill="none" stroke="#ffba55" stroke-miterlimit="10"/><path fill="#f9d8ae" fill-rule="evenodd" d="M651.5,296.8c0.1,43.7-11.3,86.6-33,124.5c-1.3,2.4-2.7,4.7-4.2,7c-45,73.3-124.5,118.5-210.6,119.7
		c-1.2,0-2.3,0-3.5,0h-3.5l-3.4-0.1c-2.5-0.1-5.1-0.2-7.6-0.3c-1.2-0.1-2.3-0.1-3.5-0.2c-2.5-0.2-4.9-0.4-7.3-0.6
		c-33.1-3.3-65.3-13.2-94.5-29.2l-7.3-4.1l-6.4-3.9c-8.4-5.3-16.5-11.1-24.2-17.3c-8.2-6.6-16-13.8-23.3-21.4
		c-4.9-5.1-9.5-10.4-14-15.8c-6.9-8.5-13.2-17.4-18.9-26.7c-1.4-2.3-2.8-4.6-4.1-7c-52.3-91.6-41.7-206.1,26.4-286.6l2.1-2.5
		c0.6-0.7,1.1-1.3,1.7-2c2.1-2.4,4.3-4.8,6.5-7.1l0.1-0.1c26.8-28,59.6-49.4,96-62.6h0.1c65.8-23.7,138.4-18.9,200.5,13.1
		c4.7,2.4,9.3,5,13.8,7.7l0.8,0.5C605.5,127.2,651.5,208.8,651.5,296.8z" clip-rule="evenodd"/><path fill="none" stroke="#fff" stroke-miterlimit="10" d="M637.8,296.8c0.1,41.4-10.7,82.2-31.3,118.1c-1.3,2.2-2.6,4.5-3.9,6.6C559.8,491.1,484.4,534,402.8,535.1
		c-1.1,0-2.2,0-3.3,0h-3.3l-3.2,0c-2.4-0.1-4.9-0.2-7.3-0.3c-1.1-0.1-2.2-0.1-3.3-0.2c-2.3-0.2-4.6-0.3-7-0.6
		c-23.5-2.4-46.5-8.2-68.3-17.4c-7.3-3.1-14.5-6.5-21.4-10.3l-6.9-3.9l-6.1-3.7c-8-5-15.7-10.5-23-16.4
		c-21.1-17.1-39.2-37.6-53.4-60.7c-1.4-2.2-2.7-4.4-3.9-6.6c-49.6-86.9-39.6-195.6,25-272c1.2-1.4,2.4-2.8,3.6-4.2
		c2-2.3,4.1-4.5,6.2-6.7l0.1-0.1c25.4-26.5,56.6-46.9,91.1-59.4h0.1c62.4-22.5,131.4-18,190.3,12.4c4.7,2.4,9.3,5,13.8,7.8
		C594.1,135.8,637.8,213.3,637.8,296.8z"/><path fill="#f1c388" d="M294.9,427.6c-0.1,0.2-0.2,0.4-0.3,0.6c-2.1,4.1-20.1,3.1-25,8.8c-4.6,5.5,5.8,3.2,4,9.4
		c-0.1,0.3-0.2,0.7-0.4,1c-3.3,7.3-15.1,2.5-21.8,5.2c-5.4,2.1-0.5,6.7,3.2,9.5l0,0c1,0.7,1.9,1.4,2.5,1.8c3,2,7,5.5-2.2,9.3
		c-9.2,3.8-16.3-9.8-21.8-1.7c-3.4,5-0.1,7.6,3,10.9l0,0c1.6,1.7,2.6,4.7,3.1,7.2l-6.7-5.8l-6.1-5.7c-2.6-2.3-4.8-4.9-7.3-7.3
		c-4.9-5.1-9.5-10.4-14-15.8c1.6-11.2,4.4-22.2,8.3-32.9c0-0.1,0.1-0.2,0.1-0.3c4.2-0.4,9.1,1,11.7,6.2c1.9,4.1,3.6,4.3,5.2,2.4
		c2.2-2.5,4.2-8.5,6.6-13.8c0.4-0.8,0.8-1.5,1.3-2.2c4.5-5.7,11.8,0.7,15.5,8.7c2.2,4.8,5,3.3,8.1-0.2l0.4-0.4
		c1.8-2.2,3.7-5,5.6-7.7c3.7,0.6,8,0.3,11.9,0.1l0,0c1.4,0,2.7-0.1,3.9-0.1l0,0c1.6,0,3.1,0.2,4.7,0.6l0.8,0.3l0.5,0.2
		c1.1,0.5,2.2,1.2,3.1,2c0.2,0.2,0.5,0.4,0.7,0.6C296.4,421.4,296.3,424.7,294.9,427.6z"/><path fill="none" stroke="#fff" stroke-linecap="round" stroke-linejoin="round" stroke-width=".5" d="M267.5,493.1c-4.4-6-11-9.2-17.8-10.5l0,0c-4.4-0.8-9-0.9-13.5-0.2c-1.1,0.2-2.2,0.4-3.2,0.6" enable-background="new" opacity=".55"/><path fill="none" stroke="#fff" stroke-linecap="round" stroke-linejoin="round" stroke-width=".5" d="M249.2,482.4c2.5,0.8,4.9,1.9,7.1,3.3c6.4,4.4,8.3,10.5,6,16.6" enable-background="new" opacity=".55"/><line x1="226.5" x2="226.5" y1="478.8" y2="478.8" fill="none" stroke="#fff" stroke-linecap="round" stroke-linejoin="round" stroke-width=".5" enable-background="new" opacity=".55"/><path fill="none" stroke="#fff" stroke-linecap="round" stroke-linejoin="round" stroke-width=".5" d="M261,503.1c3.1-1.3,6.8-3.8,6.8-8.8c0-0.8-0.1-1.6-0.4-2.4c-1.9-6.6-11.2-8.8-6.3-16.1
		c5.5-8.1,12.6,5.5,21.8,1.8s5.2-7.3,2.2-9.3s-12.5-8.6-5.8-11.3s18.5,2.1,21.8-5.2c0.3-0.6,0.5-1.3,0.6-2l0,0
		c0.4-4.8-8.5-3.2-4.2-8.3c4.9-5.7,22.9-4.7,25-8.8c1.2-2,1.5-4.3,0.9-6.5c-0.7-2.1-2.4-4.1-5.8-5.8c-5.4-2.7-16.5,0.7-24.2-1.8
		c-0.3-0.1-0.6-0.2-0.9-0.3c-1.3-0.5-2.5-1.3-3.5-2.2c-0.2-0.2-0.4-0.4-0.6-0.6c-0.2-0.2-0.3-0.3-0.4-0.5c-5-6.4-9.2-9.4-13.6-7
		c-1.7,1-3.2,2.4-4.4,4.1c-0.8,1-1.5,2-2.2,3.1c-1.8,2.6-3.6,5.3-5.4,7.4L262,423c-3.2,3.8-6.1,5.4-8.3,0.5
		c-3.6-7.8-10.7-14.1-15.2-9c-0.6,0.8-1.2,1.6-1.6,2.5c-2.3,5.1-4.3,10.9-6.4,13.5c-1.7,2.1-3.4,2.1-5.5-2.1
		c-2.5-5.2-7.3-6.6-11.5-6.2c-4,10.8-6.8,21.9-8.4,33.3" enable-background="new" opacity=".55"/><path fill="none" stroke="#fff" stroke-linecap="round" stroke-linejoin="round" stroke-width=".5" d="M323.6,426.1h-0.1c-2.6-0.1-5.3-0.7-8-0.7c-6.9,0.1-13.8,0.9-20.6,2.2c-5.2,1-10.3,2.3-15.4,3.9
		c-11.4,3.5-22.9,8.8-31.5,16.6c-4.2,3.8-7.3,8.2-10.5,12.8c-3.6,5.2-7.5,11.3-10.6,17" enable-background="new" opacity=".55"/><path fill="none" stroke="#fff" stroke-linecap="round" stroke-linejoin="round" stroke-width=".5" d="M245.8 450.6c3.4-1.3 6.4-3.4 9.9-4.5 4.2-1.4 9.1-1.2 13.7-.4 6.1 1 12.2 2.9 18.2 4.3 5 1.1 9.9 2 14.2-.1M232.3 469.1c4.9-3.1 10.3-6.2 16.6-7 11.6-1.4 27.1 5.3 35.6 14.5M274.3 407.8c1.2.9 2.3 1.9 3.3 3 3 3.2 2.8 6.5 1.5 9.9-1.3 3.1-2.8 6.1-4.6 8.9-1 1.3-1.8 2.8-2.4 4.3M282.8 409.8c.7 2.3 1 4.6 1.1 7-.1 4.4-2.4 8.7-5 11.9-1.1 1.4-2.6 2.7-3.6 4.2M240.4 413.2c.3 2.4 1.1 4.6 1.6 7 1.1 5.7 1.4 11.5.9 17.3-.5 4.1-1.4 8.1-1.9 12.2-.2 1.7-.6 4 .2 5.8" enable-background="new" opacity=".55"/><circle cx="404.5" cy="289.6" r="251.2" fill="none"/><path fill="#f4c589" fill-rule="evenodd" d="M528.5,81.2c-6.1,5-13.4,8.1-21.2,9c-17.5,2.1-30.6-25.6-43.4-20.4c-29.1,11.8-36.6,63.1-71.4,62.8
		c-28.6-0.3-27.7-47.7-64-42.7c-22.2,3-33.6,30-48.9,43.3c-23.8,20.6-49.5,15-70-1c0.6-0.7,1.1-1.3,1.7-2c2.1-2.4,4.3-4.8,6.5-7.1
		l0.1-0.1c26.8-28,59.6-49.4,96-62.6h0.1c65.8-23.7,138.5-18.9,200.6,13.2C519.4,76,524,78.5,528.5,81.2z" clip-rule="evenodd"/><ellipse cx="396" cy="289.6" fill="none" rx="242.8" ry="234.4"/><path fill="#cd7951" fill-rule="evenodd" d="M184.6,425.5h430.7c1.4-2.3,2.8-4.6,4.2-7H180.6L184.6,425.5z" clip-rule="evenodd"/><path fill="#c46538" fill-rule="evenodd" d="M546.9,418.5c-5.1,2.5-12.1,3.3-16.5,5.7l-2.3,1.3H255.4c-1.6-1.9-5.1-4.4-5.1-7H546.9z" clip-rule="evenodd"/><rect width="429" height="7" x="204.8" y="418.5" fill="none"/><polygon fill="#fff" fill-rule="evenodd" points="462.1 152.9 464.2 159.5 471.1 159.5 465.5 163.5 467.7 170 462.1 166 456.5 170 458.7 163.5 453.1 159.5 460 159.5" clip-rule="evenodd"/><polygon fill="#f4c589" fill-rule="evenodd" points="264.7 184.8 266.2 189.5 271.1 189.5 267.1 192.4 268.7 197.1 264.7 194.2 260.7 197.1 262.2 192.4 258.2 189.5 263.2 189.5" clip-rule="evenodd"/><polygon fill="#ffba55" fill-rule="evenodd" points="494 197.8 495.6 202.5 500.5 202.5 496.5 205.4 498 210.1 494 207.2 490.1 210.1 491.6 205.4 487.6 202.5 492.5 202.5" clip-rule="evenodd"/><polygon fill="#fff" fill-rule="evenodd" points="205.9 167.4 207.4 172.1 212.4 172.1 208.4 175 209.9 179.7 205.9 176.8 201.9 179.7 203.4 175 199.4 172.1 204.4 172.1" clip-rule="evenodd"/><polygon fill="#fff" fill-rule="evenodd" points="346.6 511.8 348.1 516.5 353 516.5 349 519.4 350.5 524.1 346.6 521.2 342.6 524.1 344.1 519.4 340.1 516.5 345 516.5" clip-rule="evenodd"/><path fill="#f73c4f" fill-rule="evenodd" d="M433.9 64.8c2 0 3.7 1.6 3.7 3.6 0 2-1.6 3.7-3.6 3.7-2 0-3.7-1.6-3.7-3.6 0 0 0 0 0 0C430.3 66.5 431.9 64.9 433.9 64.8zM458.4 517.7c2 0 3.7 1.6 3.7 3.7s-1.6 3.7-3.7 3.7-3.7-1.6-3.7-3.7c0 0 0 0 0 0C454.8 519.3 456.4 517.7 458.4 517.7z" clip-rule="evenodd"/><path fill="#fff" fill-rule="evenodd" d="M383,447.7c2,0,3.7,1.6,3.7,3.7c0,2-1.6,3.7-3.7,3.7c-2,0-3.7-1.6-3.7-3.7l0,0
		C379.3,449.4,381,447.7,383,447.7z" clip-rule="evenodd"/><circle cx="346.5" cy="147.1" r="5.9" fill="#fff"/><circle cx="500.5" cy="115.9" r="5.9" fill="#ffba55"/><polygon fill="#f4c589" fill-rule="evenodd" points="574.2 134.8 575.8 139.5 580.7 139.5 576.7 142.4 578.2 147.1 574.2 144.2 570.3 147.1 571.8 142.4 567.8 139.5 572.7 139.5" clip-rule="evenodd"/><polygon fill="#f4c589" fill-rule="evenodd" points="511.3 462.8 512.9 467.5 517.8 467.5 513.8 470.4 515.3 475.1 511.3 472.2 507.3 475.1 508.9 470.4 504.9 467.5 509.8 467.5" clip-rule="evenodd"/><polygon fill="#f4c589" fill-rule="evenodd" points="353.6 432.8 355.1 437.5 360.1 437.5 356.1 440.4 357.6 445.1 353.6 442.2 349.6 445.1 351.1 440.4 347.1 437.5 352.1 437.5" clip-rule="evenodd"/><path fill="none" stroke="#fff" stroke-miterlimit="10" stroke-width=".5" d="M213.2,127.5l330.9-39.4l-355.4,72.9c0,0,250.7,88,410.5-21.2"/><path fill="#e48f25" d="M348.7,466.7c0,0-3.5-7.6-16.9-12.1c-0.8-0.3,0,6,0,6s-6.1-7.9-7.2-8.1c-3.2-0.7-6.4-1.1-9.6-1.3l1.6,6.1
		l-5.5-6.1c0,0-10.4,0.4-15.4,4.9l3.2,5l-6.4-4.7c0,0-14.4,4.2-13.9,7.8s32.2,7.8,32.2,7.8l31,1.1L348.7,466.7z"/><path fill="#b32b40" d="M448.3,462.1c1.9-1.7,4-3.2,6.2-4.4c0.5-0.3,4.8,3.2,4.8,3.2s-1.9-4.7-1.3-5c2.3-1.1,4.7-2,7.2-2.7
		c0.7-0.2,3.5,4.3,3.5,4.3s0.2-5.3,1.1-5.5c4.6-1.1,9.4-1.7,14.1-2l-1.6,6.2l5.5-6.1c0,0,10.4,0.4,15.4,4.9l-3.2,5l6.5-4.7
		c0,0,14.4,4.2,13.9,7.8s-32.2,7.8-32.2,7.8l-31,1.1L448.3,462.1z"/><path fill="none" stroke="#f73c4f" stroke-miterlimit="10" d="M430.3,496.8c-30.7,15.8-30,51.2-30,51.2"/><path fill="#f73c4f" d="M516.4,465.2c0,0-39.4,6.1-68.2-3.1l-2.1,13.1l-4.9-9c-2.9,2.8-5.4,6-7.4,9.4c-0.7,1.2,4.9,6.5,4.9,6.5
		s-7.8-0.6-8.2,0.6c-1.3,3.7-2,7.6-2,11.6v3.8C428.4,498.1,484.1,474.5,516.4,465.2z"/><path fill="none" stroke="#ffba55" stroke-miterlimit="10" d="M369.7,498.6c30.6,15.8,30.2,49.3,30.2,49.3"/><path fill="#ffba55" d="M282.6,466.4c0,0,39.4,6.1,68.2-3.1l2.1,13.1l4.9-9c3.9,3.8,7.1,8.2,9.4,13.1c0.6,1.4-4.8,6.1-4.8,6.1
		s7.1-0.3,7.3,1.2c0.4,2.5,0.7,5.1,0.8,7.6v3.7C370.5,499.2,314.8,475.6,282.6,466.4z"/><path fill="#feb856" d="M323.3,324.3c3.1,0,5.6-2.5,5.6-5.6c0.1-3-2.3-5.5-5.3-5.6c-0.1,0-0.2,0-0.3,0c-3.4,0.3-5.6,2.5-5.6,5.6
		C317.7,321.8,320.2,324.3,323.3,324.3z"/><path fill="#fff" d="M379.3,467.5c1.5,0,2.8-1.2,2.8-2.8s-1.2-2.8-2.8-2.8s-2.8,1.2-2.8,2.8c0,0,0,0,0,0
		C376.6,466.2,377.8,467.4,379.3,467.5z"/><path fill="#feb856" fill-rule="evenodd" d="M314.3,92.2l1.4,4.5h4.5l-3.6,2.8l1.4,4.5l-3.6-2.8l-3.6,2.8l1.4-4.5l-3.6-2.8h4.5L314.3,92.2z" clip-rule="evenodd"/><path fill="#fff" d="M515.6,397.3c0,11.5-9.3,20.8-20.7,20.8h-111c-11.4,0-20.7-9.3-20.7-20.7v-262c0-11.4,9.3-20.7,20.7-20.7
		h111.8c11.4,0,20.7,9.3,20.7,20.7v262.2h-1v-0.3H515.6z"/><path fill="#133953" d="M495.7,114.6c11.4,0,20.7,9.3,20.7,20.7v262.7c0,11.4-9.3,20.7-20.7,20.7H383.6c-11.4,0-20.7-9.3-20.7-20.7
		V135.3c0-11.4,9.3-20.7,20.7-20.7L495.7,114.6z"/><path fill="#fff" d="M505.9,134.5v262.7c0.2,4.4-2.8,8.4-7.1,9.5c-1,0.2-2.1,0.3-3.1,0.3H382c-4.8-0.7-8.4-4.8-8.4-9.7v-262
		c0-5.2,3.4-9.2,8.4-9.7h18.1c2-0.1,3.6,1.5,3.7,3.5c0,0.1,0,0.1,0,0.2c0.1,4.3,3.6,7.8,7.9,7.9h57c4.3-0.1,7.8-3.6,7.9-7.9
		c0-2,1.5-3.6,3.5-3.7c0.1,0,0.1,0,0.2,0h15.5v-1.1c1.1,0,2.1,0,3.1,0.3C503.1,126.2,505.9,130.1,505.9,134.5z"/><linearGradient id="a" x1="439.781" x2="439.781" y1="399.19" y2="131.76" gradientTransform="matrix(1 0 0 -1 0 602)" gradientUnits="userSpaceOnUse"><stop offset="0" stop-color="#feb856"/><stop offset="1" stop-color="#feb856" stop-opacity="0"/></linearGradient><path fill="url(#a)" d="M505.9,134.5v262.7c0.2,4.4-2.8,8.4-7.1,9.5c-1,0.2-2.1,0.3-3.1,0.3H382c-4.8-0.7-8.4-4.8-8.4-9.7v-262
		c0-5.2,3.4-9.2,8.4-9.7h18.1c2-0.1,3.6,1.5,3.7,3.5c0,0.1,0,0.1,0,0.2c0.1,4.3,3.6,7.8,7.9,7.9h57c4.3-0.1,7.8-3.6,7.9-7.9
		c0-2,1.5-3.6,3.5-3.7c0.1,0,0.1,0,0.2,0h15.5v-1.1c1.1,0,2.1,0,3.1,0.3C503.1,126.2,505.9,130.1,505.9,134.5z" enable-background="new" opacity=".3"/><path fill="#ffba55" d="M515.9,162.4v1.6c0,8.7-6.8,15.8-15.2,15.8c-8.7,0-15.2-7.9-15.2-16.5v0.3c0,8.7-7.9,14.2-16.3,14.2
		c-8.7,0-14.2-5.5-14.2-14.2c0,8.7-6.8,16.5-15.5,16.5c-7.6,0-14.2-6.6-15-14.4v-2.1c0,8.7-7.9,14.2-16.5,14.2s-14.4-4.7-14.4-13.1
		v1c-0.3,8.1-7,14.6-15.1,14.7c-8.5,0-15.3-7.2-15.3-15.7v-18.4c0-1.6,0.5-3.1,1.6-4.2l7.9-15.5c0.8-1.6,2.5-2.6,4.3-2.6h122.5
		c1.1,0,2.1,0.5,2.7,1.4l12.2,16.7c0.9,1.2,1.4,2.7,1.6,4.2v16.5l0,0L515.9,162.4z"/><path fill="#fff" d="M424.6 141.9c-.2.7-.3 1.4-.3 2.1v19.2c0 8.7-7.1 16.5-15.5 16.5-8.7 0-15.2-7.1-15.2-15.8v.8l.3-19.7c0-1.2.3-2.4 1-3.4l8.9-16 1.2-1.8h26.2L424.6 141.9zM454.3 141.9c.2.7.3 1.4.3 2.1v18.9c0 8.7 6 16.5 15.5 16.5 8.7 0 15.2-7.1 15.2-15.7v.8l-.3-19.7c0-1.2-.3-2.3-.8-3.4l-8.9-16-1-1.6h-25.8L454.3 141.9zM490.7 253h-42.4c-3.4 0-6.1-2.8-6.2-6.1v-51.5c0-3.4 2.8-6.1 6.2-6.1h42.4c3.4 0 6.1 2.8 6.1 6.1v51.5c.1 3.3-2.5 6.1-5.8 6.1C490.9 253 490.8 253 490.7 253z"/><path fill="#f9d8ae" d="M479.8 235.4h-29.4c-.8 0-1.5-.6-1.5-1.4 0 0 0-.1 0-.1 0-.8.7-1.5 1.5-1.5h29.5c.8 0 1.5.6 1.5 1.4 0 0 0 .1 0 .1C481.4 234.7 480.7 235.4 479.8 235.4 479.8 235.4 479.8 235.4 479.8 235.4zM463.4 244.2h-12.9c-.8 0-1.5-.6-1.5-1.4 0 0 0-.1 0-.1.1-.8.7-1.4 1.5-1.5h13c.8 0 1.5.6 1.5 1.4 0 .1 0 .1 0 .2C464.8 243.5 464.3 244.2 463.4 244.2z"/><path fill="#fcefdd" d="M484.7,203.9c-0.1-0.1-0.3-0.3-0.4-0.3c-1.8-1.5-3.5-3.1-5.5-4.5c-0.2-0.2-0.5-0.3-0.8-0.3h-4.2
		c-0.5-0.1-0.9,0.3-1,0.7c0,0.1,0,0.2,0,0.3c-0.1,1.4-1.2,2.6-2.6,2.6c-1.5,0-2.7-1-2.9-2.5c-0.1-1.4-0.4-1-4.8-1.1
		c-0.5,0-0.9,0.2-1.3,0.4c-1.8,1.5-3.8,3.1-5.5,4.5c-0.1,0-0.1,0.1-0.3,0.1c-0.6,0.4-0.6,0.7-0.1,1.4c1,1.1,1.8,2.1,2.6,3.2
		c0.4,0.4,0.6,0.6,1.5,0.1c0.7-0.3,1.4-0.7,2.1-1.1v13.7c0,1,0.1,1.3,1.3,1.3h13.8c1.1,0,1.3-0.1,1.3-1.3v-13.7
		c1.1,0.4,1.8,1,2.4,1.1c1,0.4,1.1,0.3,1.5-0.1l2.8-3.2C485.2,204.9,485.2,204.5,484.7,203.9z" enable-background="new" opacity=".5"/><path fill="#f9d8ae" d="M476.3 208.5l-1.5 1.1c-.3.1-.6.1-.8 0l-1.5-1.1c-.1-.1-.1-.2-.1-.3v-2.4c0-.2.1-.3.3-.3h3.5c.2 0 .3.1.3.3v2.5C476.4 208.4 476.3 208.5 476.3 208.5zM459.9 208.7c-1 .4-1.1.3-1.5-.1-1-1.1-1.8-2.1-2.6-3.2-.4-.6-.4-1 .1-1.4.1 0 .1-.1.3-.1L459.9 208.7zM484.9 205.3l-2.8 3.2c-.4.4-.6.4-1.5.1l3.8-5c.1.1.3.3.4.3C485.4 204.5 485.4 204.9 484.9 205.3z"/><path fill="#fff" d="M492.6,332.2h-45.2c-3.6,0-6.5-3-6.6-6.6v-54.9c0-3.6,3-6.5,6.6-6.6h45.2c3.6,0,6.5,3,6.6,6.6v54.9
		C499.2,329.3,496.3,332.2,492.6,332.2C492.7,332.2,492.6,332.2,492.6,332.2z"/><path fill="#f9d8ae" d="M481.2 313.5h-31.5c-.9 0-1.6-.6-1.6-1.5 0-.1 0-.1 0-.2 0-.9.7-1.6 1.6-1.6h31.5c.9 0 1.6.6 1.6 1.5 0 0 0 .1 0 .1C482.7 312.7 482 313.4 481.2 313.5zM463.4 322.9h-13.9c-.9 0-1.6-.6-1.6-1.5 0 0 0-.1 0-.1.1-.9.8-1.5 1.6-1.6h13.9c.9 0 1.6.7 1.6 1.6C465 322.1 464.3 322.8 463.4 322.9L463.4 322.9z"/><path fill="#fcefdd" d="M479.2,300.8l-5.7,0.8c-0.2,0-0.5-0.1-0.6-0.3l-0.1-0.6l-3.6-14l-0.3-2.7l-3.6,16.4l-0.1,0.8
		c0,0.2-0.2,0.4-0.4,0.4c-0.1,0-0.2,0-0.2-0.1l-4.8-0.5h-0.5c-0.3,0-0.5-0.3-0.5-0.6l0.1-0.6l3.6-23.3l0.1-1c0-0.1,0.1-0.3,0.4-0.3
		h11.3c0.1,0,0.4,0.1,0.4,0.3l0.1,0.7v0.1l4.6,23.3v0.3C479.8,300.3,479.6,300.7,479.2,300.8z" enable-background="new" opacity=".5"/><path fill="#f9d8ae" d="M475.2 280.7c-1.5-.6-2.7-1.7-3.6-3-.1-.1 0-.3.1-.4s.3 0 .5.1c.7 1.2 1.8 2.1 3.1 2.7.1.1.3.3.1.5C475.4 280.6 475.3 280.6 475.2 280.7zM462.8 280.7c1.5-.6 2.7-1.7 3.6-3 .1-.1 0-.3-.1-.4s-.3 0-.5.1c-.7 1.2-1.8 2.1-3.1 2.7-.1.1-.3.3-.1.5C462.6 280.6 462.7 280.6 462.8 280.7zM468.9 282c-.2 0-.3-.1-.3-.3v-4.9c0-.2.1-.3.3-.3.2 0 .3.1.3.3v4.9C469.2 281.7 469.1 282 468.9 282zM475.2 276.5h-12.7l.1-1c0-.1.1-.3.5-.3h11.3c.1 0 .4.1.4.3L475.2 276.5zM465 300.3l-.1.8c0 .3-.3.5-.6.3l-4.8-.5h-.5c-.3 0-.5-.3-.5-.6l.1-.6L465 300.3zM479.2 300.8l-5.7.8c-.2 0-.5-.1-.6-.3l-.1-.6 6.7-.6v.3C479.8 300.3 479.7 300.6 479.2 300.8z"/><line x1="155.4" x2="657.2" y1="561.6" y2="560.3" fill="none" stroke="#ffba55" stroke-miterlimit="10"/><path fill="#ffba55" fill-rule="evenodd" d="M251,263.8c-2.1,0.1-4.2,0.7-6,1.8c-3,1.8-6.9,4.4-8.8,7.7s-5.3,11.6-6.6,14.9c-1.1,2.8-1.9,5.7-2.5,8.7
		c-0.4,2.1-1.2,4.9-1.5,6c-0.2,1.7-0.4,3.3-0.4,5c-0.1,2.1,0.2,3,0,3.9c-0.3,2-0.3,4,0.1,6c0.4,1.3,0.5,2.7,0.3,4.1
		c-0.2,1.1-0.3,2.7-0.3,2.7s8.5,43.3,8.7,44s-0.1,1.6,1.9,3s2.5,1.4,3.1,2.2s1.4,1.1,3.3,1.4s4.1,0.9,4.5,1.4s1.7,1.6,2.6,0.6
		s1.4-1,2.6-1.2c1.6-0.3,3.1-1,4.4-1.9c0.8-0.8,1.2-1.5,2.2-2c1.6-1.1,3-2.6,3.9-4.4c0.7-1.6,3-6.8,3.1-8.1s0.6-8.3,0.6-9.7
		c-0.1-2.1,0.3-4.2,1.1-6.2c1-2.1,0.5-6.5,0.4-8.6c-0.1-3,0-6,0.2-9.1c0.3-5,0.2-10-0.3-14.9c-0.7-4.1-1.6-8.2-2.8-12.2
		c-0.8-2.1-2.9-8.4-3.8-10.7s-2.7-7.4-3.1-10.1c-0.5-2.3-1.3-4.4-2.3-6.5C255.3,270.4,254.7,264.8,251,263.8z" clip-rule="evenodd"/><defs><path id="b" d="M251,263.8c-2.1,0.1-4.2,0.7-6,1.8c-3,1.8-6.9,4.4-8.8,7.7s-5.3,11.6-6.6,14.9c-1.1,2.8-1.9,5.7-2.5,8.7
				c-0.4,2.1-1.2,4.9-1.5,6c-0.2,1.7-0.4,3.3-0.4,5c-0.1,2.1,0.2,3,0,3.9c-0.3,2-0.3,4,0.1,6c0.4,1.3,0.5,2.7,0.3,4.1
				c-0.2,1.1-0.3,2.7-0.3,2.7s8.5,43.3,8.7,44s-0.1,1.6,1.9,3s2.5,1.4,3.1,2.2s1.4,1.1,3.3,1.4s4.1,0.9,4.5,1.4s1.7,1.6,2.6,0.6
				s1.4-1,2.6-1.2c1.6-0.3,3.1-1,4.4-1.9c0.8-0.8,1.2-1.5,2.2-2c1.6-1.1,3-2.6,3.9-4.4c0.7-1.6,3-6.8,3.1-8.1s0.6-8.3,0.6-9.7
				c-0.1-2.1,0.3-4.2,1.1-6.2c1-2.1,0.5-6.5,0.4-8.6c-0.1-3,0-6,0.2-9.1c0.3-5,0.2-10-0.3-14.9c-0.7-4.1-1.6-8.2-2.8-12.2
				c-0.8-2.1-2.9-8.4-3.8-10.7s-2.7-7.4-3.1-10.1c-0.5-2.3-1.3-4.4-2.3-6.5C255.3,270.4,254.7,264.8,251,263.8z"/></defs><clipPath id="c"><use overflow="visible" xlink:href="#b"/></clipPath><g clip-path="url(#c)"><path fill="#e48f25" fill-rule="evenodd" d="M222,313.1c0,0,7.1,9.3,13.4,13c4.6,2.8,11.1,25.6,9.9,35.9c-1.4,12.4-10.8,12.4-10.5,15s-3.1,4.5-3.1,4.5
				s-6.1-2.9-6.5-4.8s-7.3-19.9-8.9-27.3s-2.8-17.7-2.4-22.4S222,313.1,222,313.1z" clip-rule="evenodd"/></g><path fill="none" stroke="#e48f25" stroke-miterlimit="10" d="M243.1,418.3c4.5-14.8,7.7-49.6,6.3-65.1c-0.8-8-1-16-1.3-24s-0.6-15.8-0.4-23.8c0.2-8.7,0.8-17.4,0.9-26.1"/><path fill="none" stroke="#217276" stroke-miterlimit="10" d="M225.6,418.3c0.8-7.2,1-14.5,0.8-21.7c-0.1-7-0.9-14-2.4-20.8v-0.1c-0.1-0.2-0.1-0.5-0.2-0.7s0-0.2-0.1-0.3
		c-0.4-1.6-0.8-3.2-1.2-4.5c-0.8-2.8-1.4-4.8-1.4-4.8"/><path fill="#489da2" fill-rule="evenodd" d="M153.7,285.8c0.4-0.7,1-1.1,1.8-1.1c1.2,0,2.9,3,3.5,4.3s4.8,9.6,5.2,11.9s2.2,9.4,2.7,11.4
		s3.8,10.6,6.7,14.1s5,5.8,6.1,7.1s10.8,7.9,15.3,10s9.4,3.2,10.7,5.1s1.9,3.1,4,4.2s3.4,1.6,4.4,2.2c0.5,0.7,1.1,1.4,1.7,2
		c1.1,1.3,2,2.8,2.8,4.3c0.5,1,4.2,8.9,4.8,11.6s0.8,4.1,1.3,3.5c0.8-0.8,1.7-1.4,2.8-1.6c0.8-0.1,3.7-0.3,4.5-1
		c1.3-0.9,2.3-2.2,2.8-3.7c0.5-0.9,1.3-1.6,2.2-2c1.4-0.5,3.5-1.5,4-2.3c1.4-2.4,2.3-5.1,2.4-7.9c0,0-0.2-2.2-3-4.7
		c-1-1.3-1.7-2.8-2.2-4.4c-1.1-3.1-2.5-6.2-2.4-8.2s1.2-4.9,0.1-7.1s-2.2-4.8-4.5-6.2s-4.8-3.2-5.6-3.8c0,0-3.3-1-4.6-2.4
		s-3.1-3.7-3.5-4.2c-1.6-1.8-3.7-3.1-6-3.8c-3-0.7-5.6-0.2-7.8-1.7s-6-5-7-7.9c0,0-4-5.8-8.6-6.5s-8.2-0.9-10.2-2s-5.6-3.2-7.2-5
		s-5-5.4-7.3-6.7S155.7,279,153.7,285.8z" clip-rule="evenodd"/><defs><path id="d" d="M153.7,285.8c0.4-0.7,1-1.1,1.8-1.1c1.2,0,2.9,3,3.5,4.3s4.8,9.6,5.2,11.9s2.2,9.4,2.7,11.4
				s3.8,10.6,6.7,14.1s5,5.8,6.1,7.1s10.8,7.9,15.3,10s9.4,3.2,10.7,5.1s1.9,3.1,4,4.2s3.4,1.6,4.4,2.2c0.5,0.7,1.1,1.4,1.7,2
				c1.1,1.3,2,2.8,2.8,4.3c0.5,1,4.2,8.9,4.8,11.6s0.8,4.1,1.3,3.5c0.8-0.8,1.7-1.4,2.8-1.6c0.8-0.1,3.7-0.3,4.5-1
				c1.3-0.9,2.3-2.2,2.8-3.7c0.5-0.9,1.3-1.6,2.2-2c1.4-0.5,3.5-1.5,4-2.3c1.4-2.4,2.3-5.1,2.4-7.9c0,0-0.2-2.2-3-4.7
				c-1-1.3-1.7-2.8-2.2-4.4c-1.1-3.1-2.5-6.2-2.4-8.2s1.2-4.9,0.1-7.1s-2.2-4.8-4.5-6.2s-4.8-3.2-5.6-3.8c0,0-3.3-1-4.6-2.4
				s-3.1-3.7-3.5-4.2c-1.6-1.8-3.7-3.1-6-3.8c-3-0.7-5.6-0.2-7.8-1.7s-6-5-7-7.9c0,0-4-5.8-8.6-6.5s-8.2-0.9-10.2-2s-5.6-3.2-7.2-5
				s-5-5.4-7.3-6.7S155.7,279,153.7,285.8z"/></defs><clipPath id="e"><use overflow="visible" xlink:href="#d"/></clipPath><g clip-path="url(#e)"><path fill="#217276" fill-rule="evenodd" d="M211.4,355.7c1.4-0.6,3-0.7,4.4-0.2c3.2,1.7,6.2,3.7,9,6c1.7,1.3,3.4,2.4,5.2,3.4c1.4,0.9,2.8,2.4,2.3,4.5
				s-2.8,4.9-4.8,5.5c-0.3,0.8-0.8,1.5-1.4,2c-1,0.7-2.7,1.8-3.4,1.7c-1.8-0.4-3.4-1.2-4.9-2.3c-0.9-1-3-7.7-3.9-9.6s-3-8.4-3.1-8.9
				C211.1,357,211.2,356.3,211.4,355.7z" clip-rule="evenodd"/></g><path fill="none" stroke="#217276" stroke-miterlimit="10" d="M168,298.1c0,0,10.6,9.6,14.2,12.3s13.6,11.9,16.6,14.6s20.5,19.2,23.6,22.3s19.1,21,26.2,33.4"/><path fill="#489da2" fill-rule="evenodd" d="M578.1,378c0,0,0,2.1-0.2,3.6s-1.2,5.9,0,7.2s2.3,2.6,2.3,3.7c0,0,0.3,1.1,1.3,0c1.3-1.8,2.9-3.3,4.6-4.6
		c2-1.3,2.9-2.1,4-2.3s5.4-0.3,7.8-0.8s7.3-2.3,9.2-4.7s6-8.5,8.2-10.1s4.6-2.2,6.7-3.3s2.2-1.3,3.9-1.7c2.8-0.9,5.3-2.3,7.5-4.2
		c2.2-1.9,4-4.4,7.1-4.9c0,0,2.1-0.2,4.1-4.1c1.2-0.3,2.4-0.8,3.5-1.5c1.4-1.1,4.9-7,6.1-7c0.4,0,0.9,0.1,1.3,0.3
		c0,0-1.2-0.9-1.7-1.2s-1.4-0.5-1.8-0.9s-0.9-0.9-1.4-0.9s-3.2-0.6-4.3-1.8c-0.9-0.9-2.2-1.3-3.5-0.9c-0.8,0.3-3.5,1.1-3.5,1.1
		c-0.7-0.2-1.5-0.2-2.2-0.2c-0.8,0.2-1.7,0.2-2.6,0c-0.9-0.3-4.2-1.1-5.7-1.6c-1.7-0.6-3.5-1-5.2-1.3c-2.2-0.1-4.4,0.5-6.2,1.7
		c-3,1.7-3.9,1.8-5.5,1.9c-1.2,0-2.3,0.4-3.3,1.1c-0.7,0.6-27.6,26.1-28.8,29.4C579.1,372.6,578.5,375.2,578.1,378z" clip-rule="evenodd"/><defs><path id="f" d="M578.1,378c0,0,0,2.1-0.2,3.6s-1.2,5.9,0,7.2s2.3,2.6,2.3,3.7c0,0,0.3,1.1,1.3,0c1.3-1.8,2.9-3.3,4.6-4.6
				c2-1.3,2.9-2.1,4-2.3s5.4-0.3,7.8-0.8s7.3-2.3,9.2-4.7s6-8.5,8.2-10.1s4.6-2.2,6.7-3.3s2.2-1.3,3.9-1.7c2.8-0.9,5.3-2.3,7.5-4.2
				c2.2-1.9,4-4.4,7.1-4.9c0,0,2.1-0.2,4.1-4.1c1.2-0.3,2.4-0.8,3.5-1.5c1.4-1.1,4.9-7,6.1-7c0.4,0,0.9,0.1,1.3,0.3
				c0,0-1.2-0.9-1.7-1.2s-1.4-0.5-1.8-0.9s-0.9-0.9-1.4-0.9s-3.2-0.6-4.3-1.8c-0.9-0.9-2.2-1.3-3.5-0.9c-0.8,0.3-3.5,1.1-3.5,1.1
				c-0.7-0.2-1.5-0.2-2.2-0.2c-0.8,0.2-1.7,0.2-2.6,0c-0.9-0.3-4.2-1.1-5.7-1.6c-1.7-0.6-3.5-1-5.2-1.3c-2.2-0.1-4.4,0.5-6.2,1.7
				c-3,1.7-3.9,1.8-5.5,1.9c-1.2,0-2.3,0.4-3.3,1.1c-0.7,0.6-27.6,26.1-28.8,29.4C579.1,372.6,578.5,375.2,578.1,378z"/></defs><clipPath id="g"><use overflow="visible" xlink:href="#f"/></clipPath><g clip-path="url(#g)"><path fill="#217276" fill-rule="evenodd" d="M580.5 393.4c0 0 .7-.4.4-1s-.3-.9-.2-1.1-.4-.5.1-1 .4-.4.3-1 .5-.8.7-1.2.3-.7 1-.9c.8-.4 1.6-.8 2.3-1.3 1-.4 2.2-.7 3.3-.6 1.1.2 2.2.2 3.2.1.8-.2-.2 1-.2 1l-3.6 3.4-4.8 3.1L580.5 393.4zM614.2 337.4c0 0-2.7 1.5-3.7 5.9s-2.3 7.7-4.1 10.2-15.5 18.8-19.6 21.6-8.5 4.1-10.3 6.4-.9-7.7-.9-7.7 4-10.3 5.4-14.2 8.6-12.4 12.2-15.5 9.9-7.6 14.1-8.8C609.8 334.6 612.5 335.4 614.2 337.4z" clip-rule="evenodd"/></g><path fill="none" stroke="#217276" stroke-miterlimit="10" d="M654.3,343.2l-1.1-0.3c0,0-8.4,1.6-12.4,3.6s-16.6,9.4-21.9,12.7s-16.2,11.2-18.5,13.2s-11.6,10.3-12.8,11.9
		s-15.9,18.7-18.4,33.4"/><path fill="#f73c4f" fill-rule="evenodd" d="M565.8,386.6c0,0,0.6-0.4,0.7-0.7s-0.1-1.7,0.7-2s1.5,0,2.3-0.2c1.1-0.3,2.1-0.7,3-1.3c0.5-0.5,1.7-2.3,2-2.5
		s3.6-1.7,4.8-2.5s3.6-1.6,4.4-2.3c1.3-1,2.4-2.1,3.5-3.3c1.3-1.7,2.6-3.3,4.2-4.8c1-0.9,3.6-3.7,4.5-4.5s3-3,3.4-3.4
		s4.9-7.6,5.9-9.4s2.2-3.5,3.2-5.7s1.5-4.8,2.4-6s1.2-2,2-3c0.7-0.9,1.2-1.9,1.7-3c0.7-1.7,1.2-3.4,1.4-5.2c-0.1-1.4,0.2-2.7,0.7-4
		c1-1.8,1.6-3.7,2-5.7c0.1-1.6,0.1-3.2,0-4.8c-0.1-1.1,0.7-5.3,0.8-6.9c0.1-3.1-0.2-6.3-0.8-9.4c-0.3-2.5-0.2-5.1,0.5-7.6
		c-0.7,0-1.3,0.2-1.9,0.5c0,0-3.6,0.8-6.1-0.7c-1.3-0.4-2.7-0.5-4-0.1c-1.6,0.7-3.4,1-5.1,0.9c-1.4-0.2-4.9,0.7-6.3,2.1
		s-3.3,3.6-5.7,4.2s-5.6,0.6-8,2.9c-1.8,1.7-3.7,3.2-5.7,4.6c-0.8,0.5-3.1,1.6-4,2.8c-1.1,2-2.5,3.7-4.3,5.1
		c-2.6,2.2-4.6,5.1-4.6,6.3s0.4,1.5-1.1,3.4s-2.3,2.4-2.7,3.8c-0.6,1.7-1.4,3.4-2.4,5c-0.9,1.2-1.3,2.7-1.2,4.2
		c-0.1,2.3-0.7,4.5-1.6,6.5c-0.7,1.6-1.9,3.9-1.6,6c0.5,2.1,0.7,4.2,0.6,6.4c-0.5,2.8-0.1,5.6,1.3,8.1c1.6,2.5,2.8,5.2,3.5,8
		c0.7,2.9,1.6,5.6,2.9,8.3c0.9,1.6,2.6,5.5,2.6,7.4s0.2,1,0.4,1.2c0,0.1,0,0.2-0.1,0.3c0.1,0.7,0.4,1.5,0.7,2.1c0,0,0.4,0.1,0.6-0.4
		S565.7,387.2,565.8,386.6z" clip-rule="evenodd"/><defs><path id="h" d="M565.8,386.6c0,0,0.6-0.4,0.7-0.7s-0.1-1.7,0.7-2s1.5,0,2.3-0.2c1.1-0.3,2.1-0.7,3-1.3
				c0.5-0.5,1.7-2.3,2-2.5s3.6-1.7,4.8-2.5s3.6-1.6,4.4-2.3c1.3-1,2.4-2.1,3.5-3.3c1.3-1.7,2.6-3.3,4.2-4.8c1-0.9,3.6-3.7,4.5-4.5
				s3-3,3.4-3.4s4.9-7.6,5.9-9.4s2.2-3.5,3.2-5.7s1.5-4.8,2.4-6s1.2-2,2-3c0.7-0.9,1.2-1.9,1.7-3c0.7-1.7,1.2-3.4,1.4-5.2
				c-0.1-1.4,0.2-2.7,0.7-4c1-1.8,1.6-3.7,2-5.7c0.1-1.6,0.1-3.2,0-4.8c-0.1-1.1,0.7-5.3,0.8-6.9c0.1-3.1-0.2-6.3-0.8-9.4
				c-0.3-2.5-0.2-5.1,0.5-7.6c-0.7,0-1.3,0.2-1.9,0.5c0,0-3.6,0.8-6.1-0.7c-1.3-0.4-2.7-0.5-4-0.1c-1.6,0.7-3.4,1-5.1,0.9
				c-1.4-0.2-4.9,0.7-6.3,2.1s-3.3,3.6-5.7,4.2s-5.6,0.6-8,2.9c-1.8,1.7-3.7,3.2-5.7,4.6c-0.8,0.5-3.1,1.6-4,2.8
				c-1.1,2-2.5,3.7-4.3,5.1c-2.6,2.2-4.6,5.1-4.6,6.3s0.4,1.5-1.1,3.4s-2.3,2.4-2.7,3.8c-0.6,1.7-1.4,3.4-2.4,5
				c-0.9,1.2-1.3,2.7-1.2,4.2c-0.1,2.3-0.7,4.5-1.6,6.5c-0.7,1.6-1.9,3.9-1.6,6c0.5,2.1,0.7,4.2,0.6,6.4c-0.5,2.8-0.1,5.6,1.3,8.1
				c1.6,2.5,2.8,5.2,3.5,8c0.7,2.9,1.6,5.6,2.9,8.3c0.9,1.6,2.6,5.5,2.6,7.4s0.2,1,0.4,1.2c0,0.1,0,0.2-0.1,0.3
				c0.1,0.7,0.4,1.5,0.7,2.1c0,0,0.4,0.1,0.6-0.4S565.7,387.2,565.8,386.6z"/></defs><clipPath id="i"><use overflow="visible" xlink:href="#h"/></clipPath><g clip-path="url(#i)"><path fill="#b32b40" fill-rule="evenodd" d="M554.6,362.4c0,0,2.9,0.4,3.8,5.2c-0.1,0.8,0.3,1.6,1,2.1c1.2,1,4.2,4.5,4.8,6.5c0.6,1.7,0.7,3.5,0.3,5.2
				c-0.4,1.2-0.7,2.5-0.9,3.7c0,0.5-0.2,1-0.5,1.3l-8.7-19.5L554.6,362.4z" clip-rule="evenodd"/></g><path fill="none" stroke="#b32b40" stroke-miterlimit="10" d="M616.6,289.1c-3.2,3.6-6.1,7.4-8.9,11.3c-4.1,5.8-12.7,13.4-21.3,32.9s-19.9,44.8-21.6,55.5
		s-2.9,26.4-2.5,31.7"/><polyline fill="none" stroke="#0e3131" stroke-linecap="round" stroke-linejoin="round" points="422.7 406.5 376.7 272.8 416.9 272.7 467.3 406.4"/><line x1="368.2" x2="408.4" y1="295.4" y2="295.5" fill="none" stroke="#0e3131" stroke-miterlimit="10"/><line x1="352.1" x2="393.7" y1="338" y2="338.2" fill="none" stroke="#0e3131" stroke-miterlimit="10"/><line x1="335.8" x2="379.3" y1="380.9" y2="380.4" fill="none" stroke="#0e3131" stroke-miterlimit="10"/><line x1="293.3" x2="341.8" y1="489.4" y2="489.5" fill="none" stroke="#0e3131" stroke-miterlimit="10"/><line x1="269.6" x2="376.5" y1="552.4" y2="273.3" fill="none" stroke="#0e3131" stroke-miterlimit="10"/><line x1="320" x2="416.4" y1="553.4" y2="272.8" fill="none" stroke="#0e3131" stroke-miterlimit="10"/><line x1="460.3" x2="416.5" y1="387.8" y2="388.1" fill="none" stroke="#0e3131" stroke-linecap="round" stroke-linejoin="round"/><line x1="442.8" x2="401.1" y1="342.4" y2="343.4" fill="none" stroke="#0e3131" stroke-linecap="round" stroke-linejoin="round"/><path fill="none" stroke="#0e3131" stroke-linecap="round" stroke-linejoin="round" stroke-width="3" d="M317.8,552.3c1.8-0.1,3.4,1.2,3.5,3c0.1,1.8-1.2,3.4-3,3.5c-1.8,0.1-3.4-1.2-3.5-3c0-0.1,0-0.1,0-0.2
		C314.7,553.8,316.1,552.4,317.8,552.3z"/><ellipse cx="267.2" cy="555.6" fill="none" stroke="#0e3131" stroke-linecap="round" stroke-linejoin="round" stroke-width="3" rx="3" ry="3.3"/><path fill="#f53c4e" fill-rule="evenodd" d="M229.8 363.7c0 0-1-.1-.9.7s4.4 3.8 4.4 5.3c0 0 .6 1.3-3.3 1.4-3.1.1-6.2-.6-8.9-2-2.2-.6-4.6.3-5.9 2.3-2.6 3.4-6.3 9.9-6 12 0 0 .4.6 2.3 0s6.5-3 7.6-3.1c-1-.5-1.6-1.6-1.6-2.7.2-1.9 1.2-3.5 3.6-3.5s4.3-.1 12.3 2.4c0 0 5.7 1.4 6.6 1.4 0 0 .7-.1.8-1.2s0-3.7-.7-4.8c-1-1.7-2.7-2.7-4.7-2.8C235.3 369.1 230.3 364.4 229.8 363.7zM297.2 467c-.3.5-.4 1.1-.4 1.7.1 1 1.3 2.2 2.2 3.5s7.5 10.3 10.5 10.8c0 0 4.1.4 6.2-.4l2.9 1c1 .3 4.1 1.5 3.4 2.3 0 0-10.2 3.6-13 3.4-2.1-.2-2.4-2.6-3.9-4.9s-4.8-5.9-5.1-3.8.5 8.8.6 8.8h-1.8c0 0-1.9-10.1-3.3-11.2-2.2-1.7-2.8-4.7-1.5-7.1C295.5 468.5 295.8 466.2 297.2 467z" clip-rule="evenodd"/><path fill="#ff8d6b" fill-rule="evenodd" d="M313.5 418.1c0 0-4.6 45.4-4.4 49.8s2.3 8.7 2.8 10 2 4.5 4 4.7c0 0-5.2 2.3-7.8.2s-9.5-10.5-10.3-11.8c-.6-.8-1-1.7-1.2-2.7.9-2.2 1.4-4.5 1.6-6.9.3-4.1.5-14.7-.3-17.6s-.8-12.4.3-16.5 2-10.4 2.2-11.7L313.5 418.1zM220.8 373.9c-1.9 0-3.5 1.5-3.5 3.4 0 .2 0 .5.1.7.1 1.3 1.1 2.3 2.4 2.3 1.4.4 2.7 1.1 3.9 1.9 2 1.4 7.4 4.5 10.4 5 3.6.9 6.9 2.5 9.9 4.7 2.1 1.7 19.3 14.6 23.5 18s13.5 7.3 15.1-.4-19.8-20.7-21.7-21.6c-1.9-.9-19.8-7.4-20.8-10.5-2.3-.6-4.6-1.1-6.9-1.5C229.4 375.6 225.6 373.3 220.8 373.9z" clip-rule="evenodd"/><path fill="#e2e2e2" fill-rule="evenodd" d="M300.2,323.9c0,0-2.1,2.5-2.2,3.5s0.3,1.7,1.6,2.6s22.7,9.4,29.2,5.8c1.5-3,0.3-6.6-2.7-8.1
		c-0.3-0.2-0.7-0.3-1.1-0.4C318.5,324.8,302.4,322.6,300.2,323.9z" clip-rule="evenodd"/><path fill="#fff" fill-rule="evenodd" d="M326.2,333.7c0,0,3.8,12.6,5.6,18.4s18.6,53.3,14.6,61.5c0,0-7.8,4.7-15.7,3.9s-12.7,3-17.9,1.4
		s-9.5-2.6-14.9-2.5s-10-3.7-11.4-4s-8.8-3.1-10.5-3.4s-11-2.8-12.9-4.8s-8.6-6.1-10.9-7c0,0,10.2-19.9,15.6-28.9
		s13.1-22.2,15.7-25.8s11.7-11.6,15.1-13.8C298.6,328.7,322.3,335.5,326.2,333.7z" clip-rule="evenodd"/><path fill="#f53c4e" fill-rule="evenodd" d="M318.7,297.7c0,0-2.9,1.6-2.4-3.2c0,0-0.5-1.2-1.9,0.5s-3.6,3.6-4.9,3.4s-2.5-1.1-2.4,0.1s0.3,2.8-0.5,3.9
		s0.8,7.4,1.3,9.1s3.6,13.7,2.8,14c0,0-7.2-2-9.9-1.9c0,0,0.5-1.7-1-1.8c0,0-0.4-12.5-0.9-13.4c-0.9-1.4-1.4-2.9-1.4-4.5
		c0-2.5-0.4-10.3,0.6-13.7c0.9-3.4,2.4-6.7,4.5-9.5c2.3-3,7.3-7.6,11.4-7.2s4.8,2.1,5.7,3c0,0,4.5-3.5,7.5-3.8s2.9-1.4,3.9-1.6
		c0,0,0.6-0.6,0.7,0.6s-0.3,2.6,0.5,3.5s0.5,7.8,0.4,8.8s-0.6,7.8-1.5,9.3s-0.2,3.7,0.6,4.5s1.6,4.5,1.6,5.8s0.5,8.1-4.3,10.2
		c0,0-1,9.7-0.6,12.3s-1.5,9.9-3.7,8.3s-6.3-13.3-6.5-18.7S318.4,298.2,318.7,297.7z" clip-rule="evenodd"/><defs><path id="j" d="M318.7,297.7c0,0-2.9,1.6-2.4-3.2c0,0-0.5-1.2-1.9,0.5s-3.6,3.6-4.9,3.4s-2.5-1.1-2.4,0.1
				s0.3,2.8-0.5,3.9s0.8,7.4,1.3,9.1s3.6,13.7,2.8,14c0,0-7.2-2-9.9-1.9c0,0,0.5-1.7-1-1.8c0,0-0.4-12.5-0.9-13.4
				c-0.9-1.4-1.4-2.9-1.4-4.5c0-2.5-0.4-10.3,0.6-13.7c0.9-3.4,2.4-6.7,4.5-9.5c2.3-3,7.3-7.6,11.4-7.2s4.8,2.1,5.7,3
				c0,0,4.5-3.5,7.5-3.8s2.9-1.4,3.9-1.6c0,0,0.6-0.6,0.7,0.6s-0.3,2.6,0.5,3.5s0.5,7.8,0.4,8.8s-0.6,7.8-1.5,9.3s-0.2,3.7,0.6,4.5
				s1.6,4.5,1.6,5.8s0.5,8.1-4.3,10.2c0,0-1,9.7-0.6,12.3s-1.5,9.9-3.7,8.3s-6.3-13.3-6.5-18.7S318.4,298.2,318.7,297.7z"/></defs><clipPath id="k"><use overflow="visible" xlink:href="#j"/></clipPath><g clip-path="url(#k)"><path fill="#b72e42" fill-rule="evenodd" d="M321.1 274.3c0 0-2.5 1.4-1.4 2.9s9.1 13 10.7 16 2.9 1.6 2.9 1.6l2.5-6.3c0 0 .1-9-.1-9.4s-.2-7.6-.6-8-4.2-2.8-4.2-2.8L321.1 274.3zM318.9 311c2.2 1.1 4.6 1.9 7 2.4 3.3.5 5.8.3 8.1-1.8s2.9-8.5 2.8-9.4-.9-3.6-1.4-4-3.2-.3-3.2-.3-12.8 6.8-13.1 7.9C318.8 307.6 318.8 309.3 318.9 311z" clip-rule="evenodd"/></g><path fill="#ff8d6b" fill-rule="evenodd" d="M308.5,315.6c-0.3-2.3-2.2-9.5-2.1-11.5s0.3-6.6,1.4-6.4c2,0.4,4.1-0.3,5.4-1.8c1.9-2.2,3.4-2.4,3.1-0.3
		s1.2,2.7,2.4,2.3c0,0,0,0.5,0,1.2c0.1,4.1,0.2,17,0.5,17.7s3.5,4.9,9.3,9.3s14,9,15.4,10.4c0.9,0.1,1.8,0.2,2.8,0.1
		c0.8-0.2,5.5-3.9,7.1-4.6c0,0,1-0.2,2,1.2c0,0,3.3-0.6,4.8,0.5s0.6,2.2-0.9,1.9l-0.8-0.1c0.7,0.4,1.2,1.2,1.1,2
		c0.2,1.6,0.6,5.5-0.4,5.6c0,0,0,0.8-1.2,0.8c0,0,0,0.5-1,0.5c-0.7,0.3-1.4,0.4-2.1,0.3c0,0-6.1,1.5-10.1-0.5
		c-6.4-2.1-12.6-4.9-18.4-8.3c-9.2-5.5-15.6-10.1-16.2-10.3S308.7,317.9,308.5,315.6z" clip-rule="evenodd"/><path fill="#b72e42" fill-rule="evenodd" d="M315.6,281.5c-0.6,0.6-1.3,1.2-2.1,1.7c-1.4,1-2,2.6-2.8,4.2s-2.2,6.2-4.3,7.1s-2.3,3.8-1.1,4.5s1.7,1,2-1
		c0.9,0.7,2.1,0.8,3.1,0.1c2.4-1.2,5.1-5.2,5.4-3.6s0.3,3.8,2.3,3.6c0,0,0.6-0.5,0.5,1.8c-0.1,2.1-0.2,4.1,0.2,4.7s6.2-2.6,6.8-5.5
		S326.8,280.5,315.6,281.5z" clip-rule="evenodd"/><path fill="#ff8d6b" fill-rule="evenodd" d="M319.9,267.6v9.5c0,0-3.2-3.7-6.6-3.3s-9.6,4.2-12.8,10.9c0,0,5.9-9.5,4.8-11.4c-2.4-3.9-3.8-4.1-3.3-5.7
		s9-1.4,11.4-1.4c2.2,0,4.4,0.2,6.6,0.5V267.6z" clip-rule="evenodd"/><path fill="#f35927" fill-rule="evenodd" d="M321.3,265.6c-0.6,1.5-1.5,2.8-2.6,3.9c-0.9,0.7-2,1.1-3.2,1.1c-1.9,0.4-4,0.2-5.8-0.4
		c-2.1-1-3.9-2.4-5.5-4.1c-0.5-0.6,0.2,0,0.4-0.8c0.3-1.6,2.1-2.1,3.5-2.1c3-0.1,5.9,1.4,8.9,1.6c0.7,0,1.4,0.1,2.1,0.1
		c1.1,0,2.1,0,2.4,1.2" clip-rule="evenodd"/><path fill="#ff8d6b" fill-rule="evenodd" d="M314.6 247.1c-1.7-2.4-4.7-3.7-7.6-3.3-5.3.4-7.9 7.4-8.5 9-2 4.6 3 8.8 2.4 9.5 0 0-2 .5-2.4 1.4s-1.3 4.3 2.9 5.2c0 0 3.2 1.6 3.8-1.7 0 0 6.5 3.9 12.6 1.7 6.4-2.2 6.1-4.5 4.9-7.6-.8-1.9-1.4-3.8-1.9-5.7-.4-1.8-2.9-3.7-3.3-4.3C317.5 251.4 316.4 248 314.6 247.1zM361.4 218.5c0 0-.4-2.9 2-2.6 0 0 1.6-3.9 1.4-1.4-.2 2.5-2.1 4.6-1.3 7.5.8 2.9 2.3 5.3 1.3 8.1s-3.9 15-6.2 21.6c-2.3 6.6-3.3 10.3-7.6 14.5s-14 15.4-19 18c0 0-1.5-11.7-1-12.4s10.3-8 12.5-11.9 2.7-5.7 6.5-11.9 8.6-16.9 7.6-19.9c-.7-2-1.7-4-2.8-5.9-.5-1.1-1.1-1.8 0-4.1 0 0 0-4.5.9-5.5s3.1-6 3.9-5.5c.7.6.5 2.8-1.4 5.5 0 0 0 1.2 1.2-.2s3.2-3.7 4-3.1c.5.6.4 1.5-.2 2-.1.1-.1.1-.2.1 0 0 2.2-2.2 2.9-.9s-2 2.8-3.8 3.8C360.2 215.5 360.2 217.4 361.4 218.5z" clip-rule="evenodd"/><rect width="45" height="40" x="364" y="202.3" fill="#feb856" transform="rotate(-15.598 386.53 222.301)"/><path fill="#ff8d6b" fill-rule="evenodd" d="M360.4,221.4c1-2.2,1.5-4.6,1.5-7.1c0,0,0.7-3,2.9-2.4c0.5,1.4,0.5,2.9,0,4.3c-0.8,2.1-0.9,4.8,0,8.1
		s0.4,5.2,0,6.2l-4.5-0.5L360.4,221.4z" clip-rule="evenodd"/><path fill="#5e1212" d="M314.6,241.6c-3.1-1.1-6.4-1.4-9.2-0.1c4.1-1.9,3.7-7.5,2.6-11.1c-0.9-3-2.8-5.7-5.4-7.5
		c-2.9-1.7-6.1-2.8-9.5-3.1c-2.2-0.4-4.5-0.3-6.7,0.1c-4.3,0.9-6.7,4.1-8.5,7.9c-2.1,4.5-3,10.1-1,14.8c1,2.2,2.4,4.1,4.1,5.7
		c3,2.9,7.2,6.2,11.6,6c1.9-0.1,4.2-1.1,5.1-3c0.4,1.9-0.2,3.7-0.1,5.6c0.1,1.2,0.5,2.3,1.3,3.2c0.7,0.9,1.6,1,1.6,2.3
		c1-0.6,4.8-2.4,6.1-6.8c0.4-1.5,0.6-3.1,0.4-4.7c1,0.7,2.3,1.3,3.4,0.9c2.2-0.8,2.4-5.1,3.1-5c0.4,0,0.4,2,0.5,2.3
		c0.1,1.1,0.7,2.1,1.6,2.8c0.6,0.3,1.3,0.6,1.9,0.7c1.8,0.6,3.1,2.1,3.6,3.9c0-0.1,0.7-0.9,0.8-1.1c0.3-0.5,0.5-1.1,0.7-1.7
		c0.4-1.2,0.6-2.4,0.6-3.6c-0.1-2.2-1.3-4.3-3.1-5.6C318.4,243.3,316.6,242.3,314.6,241.6z"/><path fill="#f85c2a" d="M316.2 262.6c0 0 3.7-.3 4.5-2.4.3-.8.4.9.4 1.2.1.7-.2 1.4-.8 1.9C319.6 263.8 318.3 264.1 316.2 262.6zM316.4 259.9c0 0 1-.1 1.2-.7.1-.2.1.3.1.3 0 .2-.1.4-.2.5C317.3 260.2 317 260.3 316.4 259.9z"/><circle cx="310.7" cy="257.8" r="3.1" fill="none" stroke="#fff" stroke-miterlimit="10" stroke-width=".5"/><circle cx="316.9" cy="253.4" r="3.1" fill="none" stroke="#fff" stroke-miterlimit="10" stroke-width=".5"/><line x1="314.3" x2="313.1" y1="255.1" y2="255.9" fill="none" stroke="#fff" stroke-miterlimit="10" stroke-width=".5"/><ellipse cx="310.6" cy="259" fill="#5e1213" rx=".6" ry=".7" transform="rotate(-48.653 310.593 259.026)"/><ellipse cx="316.7" cy="253.1" fill="#5e1213" rx=".6" ry=".8" transform="rotate(-48.831 316.643 253.063)"/><circle cx="316.9" cy="253.4" r="3.1" fill="#fff" enable-background="new" opacity=".3"/><circle cx="310.7" cy="257.8" r="3.1" fill="#fff" enable-background="new" opacity=".3"/><circle cx="302.6" cy="268.3" r="1" fill="#ffba55"/><circle cx="302.6" cy="268.3" r=".5" fill="#fff"/><path fill="none" stroke="#ffba55" stroke-miterlimit="10" stroke-width=".5" d="M302.5,268.5c-0.2,0.1-0.3,0.3-0.4,0.5c-0.3,0.5-0.4,1.1-0.3,1.6c0.1,0.8,0.5,1.5,1.1,2
		c0.6,0.5,1.5,0.8,2,1.3c0.8,0.7,1,1.9,0.6,2.9c-0.6,1.4-2.3,2-3.1,3.2c-0.8,1.3-0.9,2.9-0.2,4.2c0.7,1.3,1.6,2.5,2.8,3.4"/><path fill="#5e1212" fill-rule="evenodd" d="M301.7,255.2c-0.6,0-1.8,3.3-0.8,6.3c0.8,2.5,2.4,2.2,3.9,5.2c1.3,2.6,0.3,3.3,1.8,6.7
		c1.1,2.3,1.7,2.3,2.2,4.2c0.6,2.5,0,4.7,0.7,4.9c0.3,0.1,0.7-0.3,0.9-0.6c0.8-1.3-0.1-3.5-0.9-5c-0.5-1.1-0.6-1.1-1.3-2.4
		c-0.4-0.9-0.8-1.9-1.1-2.8c-1.2-3.6-0.5-4-1.4-5.9c-1.3-2.8-3.1-2.8-3.2-5c0-1.1,0.4-1.7,0.2-3.3
		C302.5,256.6,302.1,255.2,301.7,255.2z" clip-rule="evenodd"/><line x1="301" x2="307.6" y1="261.9" y2="258.9" fill="none" stroke="#fff" stroke-linecap="round" stroke-miterlimit="10" stroke-width=".5"/><path fill="#feb856" d="M573.7 409.5c2.4 0 4.3-1.9 4.3-4.3 0-2.4-1.9-4.3-4.3-4.3-2.4 0-4.3 1.9-4.3 4.3 0 0 0 0 0 0C569.6 407.5 571.4 409.3 573.7 409.5zM581.9 248.1c2.3 0 4.2-1.9 4.2-4.2 0-2.3-1.9-4.2-4.2-4.2-2.3 0-4.2 1.9-4.2 4.2l0 0C577.8 246.2 579.6 248.1 581.9 248.1zM571.8 230.2c1 0 1.9-.8 1.9-1.9 0-.1 0-.2 0-.2-.1-.9-.9-1.6-1.9-1.6-1 0-1.8.8-1.9 1.8 0 0 0 .1 0 .1C570 229.4 570.8 230.2 571.8 230.2z"/><path fill="#fff" fill-rule="evenodd" d="M555.3,381.3l1.2,3.7h3.7l-3,2.3l1.2,3.7l-3-2.3l-3,2.3l1.2-3.7l-3-2.3h3.7L555.3,381.3z" clip-rule="evenodd"/><line x1="558.7" x2="563.3" y1="516.3" y2="560.2" fill="none" stroke="#0e3131" stroke-miterlimit="10"/><line x1="515.5" x2="560.4" y1="532.8" y2="532.5" fill="none" stroke="#0e3131" stroke-miterlimit="10"/><line x1="515.5" x2="559.2" y1="526.9" y2="526.3" fill="none" stroke="#0e3131" stroke-miterlimit="10"/><line x1="514.1" x2="547.9" y1="492.8" y2="492.3" fill="none" stroke="#0e3131" stroke-miterlimit="10"/><line x1="544.6" x2="547.5" y1="492.9" y2="526.5" fill="none" stroke="#0e3131" stroke-miterlimit="10"/><line x1="516.7" x2="514.2" y1="492.8" y2="560" fill="none" stroke="#0e3131" stroke-miterlimit="10"/><path fill="#fe8f6a" fill-rule="evenodd" d="M464.9,241.9c0,0,6.8-4.4,6.8,4.8c0,2.5,3.9,12.9,5.5,15.5c0,0-4.6,7.1-5.9,7.5s-1.8-2.5-1.8-2.5
		c0.1-1.6,0.1-3.2-0.2-4.8c-0.5-1.9-0.9-7-3.9-11.5s-3-6.9-3-9C462.4,239.8,464.5,239.6,464.9,241.9z" clip-rule="evenodd"/><path fill="#f85c2a" fill-rule="evenodd" d="M462.5,242.9c-0.4,1.6,0.4,2.5,0.7,4.5c0.1,0.5,0.3,0.9,0.7,1.2c0.7,0.5,1.2-0.2,1.8-0.8
		c0.2-0.2,0.4-0.5,0.6-0.6s1.9,0.4,2.2-0.6c0.6-2-0.8-6.8-1.6-7.2C465.8,238.8,463.3,241.1,462.5,242.9" clip-rule="evenodd"/><path fill="#fe8f6a" fill-rule="evenodd" d="M471.4,244.2l-1.4-11.4c-0.1-0.5-0.5-0.9-1-0.8c-0.2,0-0.3,0.1-0.4,0.2l-4.3,3.1l1.8,2.9l2.5-3.1l0.3,8.4
		L471.4,244.2z" clip-rule="evenodd"/><polygon fill="#377093" points="477.4 239.3 479.6 239.8 479.8 238.7 477.8 238.3"/><polyline fill="none" stroke="#377093" stroke-linecap="round" stroke-linejoin="round" stroke-width=".5" points="479.3 238.7 479.4 237.9 474.7 236.9"/><polygon fill="#377093" fill-rule="evenodd" points="454.9 234.1 456.2 234.8 456.4 234" clip-rule="evenodd"/><polygon fill="#133953" fill-rule="evenodd" points="456.4 233.9 479.3 238.6 479.2 239.7 456.3 234.8" clip-rule="evenodd"/><path fill="#fe8f6a" fill-rule="evenodd" d="M465.9,237c0,0,0.5-3.9,1.7-2.6c1.2,1.3,1,9.4,2.2,10c0,0,0.4,2.5-1,3.6c-1.4,1.2-2.5-2-2.5-2
		S466,239.1,465.9,237z" clip-rule="evenodd"/><path fill="#ffba55" fill-rule="evenodd" d="M477.2,261.4c0,0-4.3,7.2-6.7,7.8c0.4-1,0.4-2,0.1-3c-1.3,0.1-2.3,1.2-2.2,2.5c0,0.3,0.1,0.6,0.2,0.8
		c1,2.9,1.4,3.6,1.5,4.4c0,0,0.2,0.5,1.1,0.3s1.7,9,6.2,14.6s11.6,8.8,27.6,6c0,0,10.6-16.2,10.5-18.5c0,0-5.2,1.7-10.1,2.8
		c0,0-11.3,2.7-15,0.4S479.4,268.3,477.2,261.4z" clip-rule="evenodd"/><defs><path id="l" d="M477.2,261.4c0,0-4.3,7.2-6.7,7.8c0.4-1,0.4-2,0.1-3c-1.3,0.1-2.3,1.2-2.2,2.5c0,0.3,0.1,0.6,0.2,0.8
				c1,2.9,1.4,3.6,1.5,4.4c0,0,0.2,0.5,1.1,0.3s1.7,9,6.2,14.6s11.6,8.8,27.6,6c0,0,10.6-16.2,10.5-18.5c0,0-5.2,1.7-10.1,2.8
				c0,0-11.3,2.7-15,0.4S479.4,268.3,477.2,261.4z"/></defs><clipPath id="m"><use overflow="visible" xlink:href="#l"/></clipPath><g clip-path="url(#m)"><path fill="#e48f25" fill-rule="evenodd" d="M468.5,264.5c0,0-1.9,6.6-1.5,8.4s4.2,1.7,4.5,1.4s7-5.1,8.5-8.8s-1.5-7.4-1.5-7.4l-6.8,3L468.5,264.5z" clip-rule="evenodd"/></g><path fill="#5e1212" fill-rule="evenodd" d="M505.6,283.2c1.3-3.5,3.3-6.8,6-9.4c4-4.1,6.5-9.4,7-15.1c4.2-0.1,6.9,8.3,7.2,9c1.3,2.9,0.4,3.3-0.1,5.4
		s-5.2,6.6-7,8.7c-2.2,2.7-4.2,5.6-5.9,8.7c-0.7,1.5-5.2,5.3-5,7.4c-1.4,0.3-2.9-0.1-4.1-1c-0.5-0.5-1.5-1.6-1.3-5.1L505.6,283.2z" clip-rule="evenodd"/><path fill="#ffba55" fill-rule="evenodd" d="M507.3,298.7c0,0-0.2,12.6-0.7,14.8s-2.5,19.1-2.4,21.7s0,13.5,0,14.5c0,0,4.2-0.9,5.6-2.4
		c0,0,0.8-32.9,1.1-36.4s-0.8-12.4,0-14.2s3.1-8.9,3.1-8.9S507.5,293.4,507.3,298.7z" clip-rule="evenodd"/><defs><path id="n" d="M507.3,298.7c0,0-0.2,12.6-0.7,14.8s-2.5,19.1-2.4,21.7s0,13.5,0,14.5c0,0,4.2-0.9,5.6-2.4
				c0,0,0.8-32.9,1.1-36.4s-0.8-12.4,0-14.2s3.1-8.9,3.1-8.9S507.5,293.4,507.3,298.7z"/></defs><clipPath id="o"><use overflow="visible" xlink:href="#n"/></clipPath><g clip-path="url(#o)"><path fill="#e48f25" fill-rule="evenodd" d="M513.5,304.9c0,0-6.2,0.4-4.7,3.8s1,16.1,0.5,18.3c-0.7,5-1.1,10-1.2,15.1c0.1,1.1,0,5.9,1.1,4.7
				s4.1-4.6,4.8-5.5s4-8.6,4.1-9.8s1.2-12,0.6-15s-2.6-7.5-2.8-8.8C515.7,306.5,513.5,304.9,513.5,304.9z" clip-rule="evenodd"/></g><path fill="#fff" fill-rule="evenodd" d="M526.1,269.3c-0.2,1.4-0.5,2.7-1,4c-0.6,1.3-12,13.2-13.3,18.8c-0.2,0.7-0.9,3-1.1,4c-0.9,4.3-1,9.9,0.1,11.3
		c0,0,2.5-8.3,3.4-12c1-4.2,2.9-8.1,5.6-11.4c2.5-2.8,4.7-5.8,6.7-8.9c0.7-1.2,1.4-2.4,2.2-3.5c0.6-0.8-0.9-2.5-0.9-2.5
		S526.2,270.3,526.1,269.3z" clip-rule="evenodd"/><path fill="#e48f25" fill-rule="evenodd" d="M509.7,345.5c0,0-2.8,1.8-3,3.4c1.2-0.2,2.2-0.8,3-1.6C509.9,346.7,509.9,346.1,509.7,345.5z" clip-rule="evenodd"/><path fill="#133953" fill-rule="evenodd" d="M513,353.2c0,0-0.5,0-0.6,1.1s1,12,1.7,15.9c0.7,3.9,8.8,33.1,13.6,42.6c0,0-0.7,4.2,1.1,4c0,0-1,3,0.6,3.1
		s1.7,0.6,1.7,2.6s0.3,2.5,1.2,2.3s2.4,24.3,7.3,32.4c0,0-0.4,2.8-0.6,4c-0.1,0.9,0.4,1.8,1.1,2.3c0.5,0.4,0.5,2.1,0,2.3
		s-0.4,2.5,1.1,2.8s3.9-4.2,4.5-5.1s-1.1-37.8-4.5-43.2s-24.3-63.5-24.2-65.8S513,353.2,513,353.2z" clip-rule="evenodd"/><path fill="#f73c4f" fill-rule="evenodd" d="M535.6 476.9c0 0 1.6-3.9 4.6-10.5l4.5 2.3c0 0-1 6.8-2.7 8.2C542 476.9 537.4 478.6 535.6 476.9zM525.3 485.2c-2.1-.2-4.2-.2-6.3 0-.1 0-.2.1-.3.1-.5.5-2.3 2.6-.4 4.2 2.2 1.8 25 1.1 29 .5s10 2.3 9.6-5.9C556.9 484.1 528.3 486.5 525.3 485.2z" clip-rule="evenodd"/><path fill="#b32b40" fill-rule="evenodd" d="M554.3,468.5c0.2,1.9,0.6,7.3,1.1,9.1c0.7,2.9,2.1,8.2,1.5,8s-31.3,3.7-34.8-0.7c1.7,0,3.5-0.3,5.1-0.9
		c3.5-1.1,6.9-3.5,9.4-9.7c0,0,1.7,2.1,2.7,1.6c2-1.2,3.6-2.8,4.8-4.7c0.1-0.2,0.4-0.4,0.6-0.4c1.6,0,7.2-0.1,9.1-2.6" clip-rule="evenodd"/><path fill="#fe8f6a" fill-rule="evenodd" d="M531.8 246.3c0 0 2.5 12 7.8 14.9 0 0-11.3 5.8-13.5 8.4 0 0-2.5-12-10.2-11.1 0 0 13.6-10.6 14.2-12.8S531.8 246.3 531.8 246.3zM463.1 237.5c0 0-2.4 5.4.6 8.6 0 0 2.3.9 1.8-.8s-.7-4.6-.4-4.7c.4-.1.6 4.6 2.5 4.2 0 0-.2-4.2-.9-5.3S464.5 236.8 463.1 237.5z" clip-rule="evenodd"/><path fill="#377093" fill-rule="evenodd" d="M512.5,353.2c0,0,2.7,3.6,3.4,5.7c0.8,3,1.3,6,1.4,9.1c0.2,3.4,3.2,13.5,3.8,15.9s8.3,23.8,9.7,27.3
		s1.3,5.6,2.3,5.1c0,0,0,3.2,1.1,2.9c0,0,0.7,2.8,1.7,2.3c0,0,2,0.7,1.5,2.3c0,0-1.5,20,3.7,33c0,0-1,3.6,0.5,5.2s0.2,4.8,0,6.7
		s-1,9.8,2.3,8.5s11.4-4.5,11.4-4.5c0.7-1.8,1.1-3.7,1.1-5.7c0-2.7,0.4-17.2,1.1-20.5s0.7-12.7-2.3-25s-11.8-51.4-6.8-58
		c3.9-5.2,2-7,3.4-14.8C551.7,348.6,521,343.9,512.5,353.2z" clip-rule="evenodd"/><path fill="#b32b40" fill-rule="evenodd" d="M536.4 478c0 0 1.7-4.1 4.8-11.1l4.8 2.5c0 0-1 7.2-2.9 8.7C543.2 478 538.3 479.8 536.4 478zM525.5 486.8c-2.1-.2-4.1-.2-6.2-.1-.5.1-.9.4-1.2.8-.7.9-1.6 2.6 0 3.9 2.3 1.9 26.5 1.2 30.7.6s10.6 2.5 10.1-6.2C559 485.6 528.7 488.2 525.5 486.8z" clip-rule="evenodd"/><path fill="#f73c4f" fill-rule="evenodd" d="M540.3,477.1c2.1-1.3,3.8-3,5.2-5c0.1-0.2,0.4-0.4,0.6-0.4c1.7,0,7.7-0.1,9.7-2.8c0.1-0.1,0.2-0.1,0.2-0.1
		c0.1,0,0.2,0.1,0.2,0.2c0.2,3.3,0.6,6.5,1.1,9.7c0.8,3,2.2,8.6,1.6,8.5s-33.2,4-36.8-0.8c1.8,0,3.7-0.3,5.4-1
		c3.7-1.2,7.3-3.7,10-10.3C537.5,475.4,539.3,477.6,540.3,477.1z" clip-rule="evenodd"/><path fill="none" stroke="#fff" stroke-linecap="round" stroke-linejoin="round" stroke-width=".5" d="M542.3 476.6c0 0-3.5-1.3-4.2-2.2M536.7 477.2c.9.5 1.9.9 2.8 1.2M535.4 479.6c1.1.5 2.3 1 2.3 1"/><path fill="none" stroke="#6ba6c4" stroke-dasharray="4" stroke-linecap="round" stroke-miterlimit="10" stroke-width=".5" d="M532.3 361.7c0 0 .3 31.6 7.3 45.8s11.4 54.4 10.8 62.8M517.8 367.6c0 0 17.9 4.1 18.9-17.9"/><path fill="#fff" fill-rule="evenodd" d="M512.6,350.8c0,0-0.5,2.5,0.2,3.4c0,0,5.1-4,16.7-4.2c11.6-0.2,16.3-1.3,16.3-1.3l-3.1-11.6
		C542.6,337.1,516.5,344.4,512.6,350.8z" clip-rule="evenodd"/><path fill="#ffba55" fill-rule="evenodd" d="M527,271.3c0,0-14.5,18.3-15.4,27.1s-1.4,22.3-1.4,24.8s-0.4,22.8-0.6,25.5c0,0,0.6,3.1,2.8,3.2
		c2.2,0.1,18.4-4.4,26-12.4c0.8-0.2,1.6-0.1,2.4,0.1c0,0,1.9-12,1.2-16.6s-0.1-6.2-1.2-7.7s-2.3-9.3-2-13.4c0,0-3.4-10.6-3.3-12.8
		s-1.4-8.3,2-14.2s11.4-4,13.8-0.2c0,0-6.7-9.3-7.3-11.2C543.9,263.4,530.3,266.3,527,271.3z" clip-rule="evenodd"/><path fill="#e48f25" fill-rule="evenodd" d="M535.9,277.1c0,0-6.2,9.3-1.9,15.5c1.1,1.7,2.5,6.9,1.9,9.7s-1.7,14.3,0.2,23c0.9,4.2,1.6,8.4,2.3,10.8
		c0.5,1.3,1.1,2.5,1.8,3.6c0,0,3.9-18.2,3.3-22.8s-1.5-16.6-2.2-20.3s-3.4-11.3-3.6-12.2S535.9,277.1,535.9,277.1z" clip-rule="evenodd"/><path fill="#ffba55" fill-rule="evenodd" d="M547.1,270.9c0,0,4.2,2.3,5.1,6.1c1.7,2.2,2.8,4.9,3,7.6c0.1,4.2-0.1,5.9-0.8,7.7s-0.6,6.9-0.5,10.9
		s0.4,14.6,0.3,17.4s1.5,7.7,1,11.3s-1.2,13.9-3.1,16c0,0,0.1,4.3-1.5,5.3c0,0-2.2,1.7-2.5,1.5s0.5-1.7-0.2-2.7
		c-0.8-1.2-6.1-2.1-7.4,0.1c-0.2,0.7-0.4,1.3-0.8,1.9c0,0,0.2-12.3,0.7-14.8s1.9-14.1,0.8-18.1s-2.6-14.2-3.1-17.9s-2.9-12.4-3-14.6
		S532,269.2,547.1,270.9z" clip-rule="evenodd"/><path fill="#fe8f6a" fill-rule="evenodd" d="M540.3,351.5c-1.9,1.5-1.2,6.5-3.3,9.8s-3.2,5.7-3.2,8.9s0.1,8.1,0.1,8.1s2.9-0.3,2-6.1c0,0,1.6-0.6,1,1.4
		s-1.4,5.7-4.5,7.1c0,0-0.4,2,2.2,0.7s1.6-0.6,3.4-0.7c1,0,1.1-0.6,2.6-0.8s3.1-0.8,3.7-1.8c0,0,3.6-0.8,3.3-3.2
		c-0.2-1.6-0.4-7.6-0.3-10.4s2.1-10.4,1-12.5S542.2,350,540.3,351.5z" clip-rule="evenodd"/><g><defs><path id="p" d="M531.8,246.3c0,0,2.5,12,7.8,14.9c0,0-11.3,5.8-13.5,8.4c0,0-2.5-12-10.2-11.1c0,0,13.6-10.6,14.2-12.8
				S531.8,246.3,531.8,246.3z"/></defs><clipPath id="q"><use overflow="visible" xlink:href="#p"/></clipPath><g clip-path="url(#q)"><path fill="#f85c2a" fill-rule="evenodd" d="M514.7,258.8c0,0,9.6,1.2,11.9-3.4s4.5-4.8,4-2.3s3.4,8.7,6.8,9.7s4.3-5.5,4-6.8c-0.9-3.3-2-6.5-3.3-9.7
				c-1.1-2.2,0.8-3-2.4-2.9c-3,0.3-5.9,1.3-8.5,2.9c-1.8,1.1-5.5,2.7-7.4,4.5C518,252.7,514.7,258.8,514.7,258.8z" clip-rule="evenodd"/></g></g><path fill="#fe8f6a" fill-rule="evenodd" d="M527.8,250.3c-0.4,1.2-1.1,2.9-1.1,2.9c-1.3,3.5-7.6,5.1-10.2,5.9c-1.9,0.5-4.8-0.3-5.7-1.4s0.6-3.9,0-4l0,0
		c-0.7,0-1-1.4-0.6-1.7s0.6-0.7,0-1.7c-0.1-0.2-0.2-0.4-0.2-0.6c0-0.1,0-0.2,0-0.3c0.1-0.5,0.4-1,0.7-1.4l-1.1-0.5
		c-2.8-1.8,0-3.5,1.7-5.2c1.7-1.7,1.1-2.9,1.1-2.9c-0.6-3.4,2.9-8.5,2.9-8.5c3.6-1.8,10.8,1.9,11.7,3.4s0.4,8.2,1.4,7.4
		c1-0.7,3.2-1.9,4,1.7S527.8,250.3,527.8,250.3z" clip-rule="evenodd"/><path fill="#e48f25" fill-rule="evenodd" d="M543.4,261.2c0,0-8.1-2.5-17.4,8.4c0,0,1.5,3.6,3.7,3.2c0,0,8.3-10.7,13.7-8.1
		C544.3,263.7,544.3,262.2,543.4,261.2z" clip-rule="evenodd"/><path fill="#f85c2a" d="M510.2,252c0.4-0.4,0.6-0.7,0-1.7c-0.1-0.2-0.2-0.4-0.2-0.6c0-0.1,0-0.2,0-0.3l0,0c1.1,0.3,2.1,0.8,3,1.4
		c-0.2,1.8-2.8,2.1-2.8,2.6C510.3,253.4,509.6,252.6,510.2,252z"/><path fill="#fff" d="M510.5,250.9c0.8,0,1.7,0,2.5-0.1c-0.8,0.3-1.6,0.4-2.5,0.3L510.5,250.9z"/><path fill="#5e1212" d="M514.5,241.5c0.2,0,0.4,0.4,0.4,0.9s-0.2,0.9-0.4,0.9"/><path fill="none" stroke="#5e1212" stroke-linecap="round" stroke-linejoin="round" stroke-width=".5" d="M513.5,239.5c0.2-0.1,0.4-0.2,0.7-0.2c0.4,0,0.8,0.1,1.2,0.3c0.3,0.2,0.7,0.4,1.1,0.6
		c0.4,0.2,0.8,0.2,1.2,0.1"/><path fill="#5e1212" fill-rule="evenodd" d="M522.1,231.4c0,0,5.9-7.2,13.7-7.3c0.3,0,0.7,0.1,1,0.2c6.2,2.3,2.2,15.6,7.8,28.8
		c4.6,10.9,11.2,10.9,11.2,18c0,8.8-10.2,18.6-17.3,17.3c-10.3-1.9-17.9-27.3-10.2-38.4c1.3-1.9,5.8-4.1,3.5-7.7
		c-0.8-1.1-4,2.7-7.3,1.2c-2.8-1.2-4.5-5.3-3.9-8.8C520.8,233.6,521.3,232.4,522.1,231.4z" clip-rule="evenodd"/><path fill="#5e1212" fill-rule="evenodd" d="M535.7,224.1c-10.9,3.2-14.1,7.1-14.8,10.2c-0.3,1.5-0.4,4.1-1.8,4.6c-1.8,0.6-4.1-2.9-5.8-2.1
		c-0.4,0.2-0.7,0.6-0.8,1c0,0.6,0,1.3,0.1,1.9c0.2,0.8-0.5,2.4-1.1,2.4c-1.2,0.1-4.5-6.5-2.4-9.6c1.7-2.4,5.5-1.1,8-4.4
		c1-1.3,0.5-1.7,1.4-3.2c2.3-4,8.8-6.8,13.5-4.5C533.6,221.2,534.9,222.5,535.7,224.1z" clip-rule="evenodd"/><circle cx="519.1" cy="252.2" r=".4" fill="#dc4019"/><circle cx="522.1" cy="244.9" r=".4" fill="#dc4019"/><path fill="#fff" fill-rule="evenodd" d="M212.4,289.2l1.1,3.7h3.7l-3,2.3l1.1,3.7l-3-2.3l-3,2.3l1.1-3.7l-3-2.3h3.7L212.4,289.2z" clip-rule="evenodd"/><path fill="#cd7951" fill-rule="evenodd" d="M403.8,425.5V548c-1.2,0-2.3,0-3.5,0h-3.5V425.5H403.8z" clip-rule="evenodd"/></svg>