<svg xmlns="http://www.w3.org/2000/svg" data-name="Layer 1" viewBox="0 0 800 600"><defs><clipPath id="b"><path fill="none" d="M207.06,292.15a4,4,0,0,1-4-.89,8.74,8.74,0,0,1-3.17-4.76c-.68-3-.06-4.21-.06-4.21s1.25-2.61,4.43-.05a20.93,20.93,0,0,1,2.68,2.1l.14,2.91s2.89-.08,2.91-1.46v-5.17s4.87-3.54,4.75-4.86a8,8,0,0,1,.15-2.26c.25-.74,4.38-.33,6.14-2.49,0,0,3.69,1.9,5.67.38,0,0,4.16.07,5.15,3.24,0,0,2.59,5.41,1.73,10.39-.22,1.29-2,2.49-2.1,4.34,0,0-.17,4.47-.43,6.31a43.46,43.46,0,0,1-1,5.66c-.52,1.83-2,3.32-2.22,5.16s-3.6,2.73-7.85,2c0,0-11.21-2.81-12.81-10A49.49,49.49,0,0,1,207.06,292.15Z"/></clipPath><clipPath id="c"><path fill="none" d="M158.83,407.94a14.71,14.71,0,0,0,4,7.64,20.71,20.71,0,0,1,3.9,7.92c1,4.55,1.78,8.39,2.6,9.2,0,0-2.49,2.11-4.22-1.11s-1.86-7.22-2.2-6.21a20.58,20.58,0,0,0-.58,9.68s.8,6.12-.37,7.56c0,0-2.07,1.86-2.3-.63,0,0-.18,1.71-2.37,1.35,0,0-1,.07-.66-3.21a2.79,2.79,0,0,0-.45-2.31,56.78,56.78,0,0,0-4.52-5.61,7.08,7.08,0,0,1-1.94-4.19,3,3,0,0,1-.77-2.47,26.36,26.36,0,0,0,0-4.62s.92-6.76.05-8.75c0,0-.64-.53-.33-4.09s-1.07-14.21-1.72-17.56-3.2-18.28-2.09-23.93,4.35-18,5.27-21.71c0,0,2.17-10.48,5-13.39,0,0,13.64,10.63,16.77,15.12,0,0-.61,2-1.72,4.64-2.12,4.69-5.87,11.54-10,13.26,0,0-1.66,5.82-1.08,9.17a58.65,58.65,0,0,1,.38,12.44c-.34,4-1.15,16.19-1.18,17.71A36.32,36.32,0,0,0,158.83,407.94Z"/></clipPath><linearGradient id="a" x1="403.2" x2="403.2" y1="187.43" y2="359.49" gradientUnits="userSpaceOnUse"><stop offset="0" stop-color="#feb856"/><stop offset="1" stop-color="#feb856" stop-opacity="0"/></linearGradient></defs><path fill="#feb856" d="M286.71,318.89a5.58,5.58,0,0,0,5.57-5.58,5.42,5.42,0,0,0-5.57-5.57c-3.35.27-5.58,2.51-5.58,5.57A5.59,5.59,0,0,0,286.71,318.89Z"/><path fill="#d5654d" fill-rule="evenodd" d="M280.17,281.36s-1,1.48-3.62-4.38l1.29,0s-.12-.52-.3-1.35A48.43,48.43,0,0,0,280.17,281.36Z"/><path fill="#ced7e2" d="M445.66,368.07H426.19a2.42,2.42,0,0,1-2.38-2.21,2.3,2.3,0,0,1,2.38-2.22h19.47a2.42,2.42,0,0,1,2.38,2.22A2.53,2.53,0,0,1,445.66,368.07Z"/><path fill="none" stroke="#feb856" stroke-miterlimit="10" d="M625,300c0,.6,0,1.21,0,1.81-.79,100.05-66.85,184.54-157.72,213-3.07,1-6.16,1.86-9.28,2.67a225.49,225.49,0,0,1-179.8-28.23q-4.44-2.85-8.72-5.91a226.16,226.16,0,0,1-51.14-50.52q-3.15-4.28-6.08-8.72c-.33-.51-.68-1-1-1.55-1.32-2-2.61-4.06-3.85-6.12a223.06,223.06,0,0,1-19.9-42.22c0-.13-.1-.27-.14-.39A225,225,0,1,1,625,300Z"/><path fill="#f7d6ab" fill-rule="evenodd" d="M617.91,298.94c0,.57,0,1.15,0,1.72a214.29,214.29,0,0,1-61.35,148.66l-.08.08c-.56.58-1.13,1.15-1.72,1.72a212.71,212.71,0,0,1-24,20.7l-.59.44a2,2,0,0,1-.25.18,214.25,214.25,0,0,1-61.24,31.24l-1.41.46q-2.64.83-5.31,1.58c-1.18.34-2.36.66-3.55,1a216.35,216.35,0,0,1-88.48,4.68c-1-.16-2.07-.32-3.1-.5-2-.33-4-.7-6-1.1l-.92-.19a213.59,213.59,0,0,1-73.29-29.86q-4.24-2.73-8.33-5.65a216.28,216.28,0,0,1-48.86-48.26q-3-4.1-5.8-8.33c-.32-.49-.65-1-1-1.48q-1.89-2.89-3.68-5.85-3.39-5.59-6.43-11.39a211.87,211.87,0,0,1-12.58-28.95l-.13-.37a215.28,215.28,0,0,1,101.37-259.9q2.43-1.31,4.89-2.54a214.06,214.06,0,0,1,96.87-23,216.32,216.32,0,0,1,28.28,1.85,213.31,213.31,0,0,1,76,25.14q4.19,2.32,8.26,4.83l.7.43c3.84,2.37,7.6,4.88,11.27,7.49a215.28,215.28,0,0,1,79.7,108.07,210,210,0,0,1,6.16,23A215,215,0,0,1,617.91,298.94Z"/><path fill="#f1c388" d="M295.55,416.83c-6.1,11.34-24.41,3.54-23.28,16.21.71,7.82,6.2,7.69,12,8.47,3.53.47,7.16,1.29,9.85,4.49H246.15a217.48,217.48,0,0,1-16.76-20.19q-3-4.1-5.8-8.33c-.32-.49-.65-1-1-1.48q-1.89-2.89-3.68-5.85-3.39-5.59-6.43-11.39c3.9-3.5,9.66-5.73,16.11-2.69,5.3,2.5,7.14,1.31,7.24-1.87.14-4.24-2.8-12-4.73-19.29a13.75,13.75,0,0,1-.49-3.32c-.17-9.37,12.41-9,22.63-4,6.35,3.11,7.89-1.06,7.94-7.62,0-3.66-.42-8.07-.76-12.37,4.25-2.46,8.23-6.25,12-9.62,1.32-1.18,2.62-2.31,3.89-3.31a23,23,0,0,1,5.18-3.26c.36-.15.72-.27,1.07-.38l.62-.17a19.29,19.29,0,0,1,4.78-.53c.41,0,.81,0,1.19.06,5.19.52,7.83,3.88,8.89,8,.08.27.14.55.2.83,1.19,5.83-17.66,19.69-17.8,29.43-.13,9.27,8.49-1.52,11.69,6.14a11.94,11.94,0,0,1,.43,1.28c2.74,10.07-13,15-17.6,23.18-3.62,6.52,5,7.11,11.1,6.84,1.58-.07,3-.2,4-.3C294.76,405.24,301.65,405.5,295.55,416.83Z"/><path fill="none" stroke="#fff" stroke-linecap="round" stroke-linejoin="round" stroke-width=".5" d="M281 445.58c8.63-12 26.06-23.56 43.54-19.08M297.38 430.84a35.85 35.85 0 019.85-2.51c10-.87 17 3.63 19.72 11.76" opacity=".55"/><path fill="none" stroke="#fff" stroke-linecap="round" stroke-linejoin="round" stroke-width=".5" d="M231,440.15a213.26,213.26,0,0,1-19-40.34c3.9-3.81,9.91-6.43,16.69-3.24,5.57,2.63,7.32,1.18,7.24-2.37-.08-4.33-2.88-11.79-4.73-18.79a13.12,13.12,0,0,1-.49-3.82c.28-8.86,12.6-8.46,22.63-3.55,6.51,3.19,8-1.28,7.94-8.12,0-3.56-.44-7.77-.76-11.87-.14-1.69-.26-3.36-.33-5a17.8,17.8,0,0,1,1.05-7.7c2.5-5.94,9.28-6.5,19.49-4.19.29.07.58.13.87.17a9.73,9.73,0,0,0,1.07.12,13.94,13.94,0,0,0,5.4-.7c.4-.13.79-.27,1.19-.44,9.76-3.92,18.11-16.44,25.7-18.17,4.77-1.08,8.19-.5,10.59,1.06A11,11,0,0,1,330,320.5c1.19,5.81-17.68,19.67-17.81,29.42-.12,8.69,7.45-.25,11,4.92a8.35,8.35,0,0,1,1.08,2.51c2.75,10.06-13,15-17.58,23.18s10.36,7,15.06,6.53,11.57-.2,5.48,11.13S302.8,401.73,304,414.4c1,11.38,12.16,5.92,19.55,10.93a10.75,10.75,0,0,1,2.36,2.15c7.06,8.61-2.74,19-2.74,19H271.73c0-.16-.07-.33-.1-.5" opacity=".55"/><path fill="none" stroke="#fff" stroke-linecap="round" stroke-linejoin="round" stroke-width=".5" d="M325.62,313.13l-.13.1c-2.75,2.09-5.95,3.67-8.6,5.91a147.7,147.7,0,0,0-18.8,19.16,197.3,197.3,0,0,0-12.18,16.56c-8.57,13-15.71,27.62-17.91,42.6-1.07,7.27-.58,14.19,0,21.46A258.61,258.61,0,0,0,271.63,446" opacity=".55"/><path fill="none" stroke="#fff" stroke-linecap="round" stroke-linejoin="round" stroke-width=".5" d="M267.7 401.81c2.32-4.11 3.59-8.72 6.15-12.7 3.13-4.87 8.13-8.65 13.39-11.73 6.91-4.05 14.62-7.1 21.84-10.73 5.93-3 11.53-6.18 14.13-11.85M269.48 431.46c2.36-7.21 5.22-14.76 10.86-20.62 10.54-10.95 31.52-17 47.68-14.87M261.11 335.38a27.65 27.65 0 015.75.27c5.62.78 8.2 4.22 9.68 8.65a78.91 78.91 0 012.73 12.75c.33 2.05.33 4.37 1.11 6.34" opacity=".55"/><path fill="none" stroke="#fff" stroke-linecap="round" stroke-linejoin="round" stroke-width=".5" d="M271.22 330.35a34.6 34.6 0 016.79 6.11c3.47 4.45 4.75 10.71 4.81 16 0 2.39-.42 4.85-.15 7.23M231.53 368.76c2.26 2.1 5 3.71 7.32 5.71A81 81 0 01254 391.08c2.93 4.53 5.34 9.27 8.19 13.83 1.17 1.87 2.69 4.59 5 5.61" opacity=".55"/><path fill="#fff" fill-rule="evenodd" d="M475,90.34c-26.73,17.08-54.29,32.88-63.42,63.74-4.39,14.92-7.17,31.37-4.17,47.09,5.8,30.49,24.56,59.23,26.79,90.36,1.5,21.11-13.44,49.56-38.54,53.31-5.73.84-9.18-8-10.59-11.81-4.68-12.49-3-28.84-12.48-39.94-14-16.45-48.54-1.36-51.7-28.59-2.5-21.53,24.2-38,15.41-60.37-11.87-30.22-77.18-13.28-75.72-52.95a76.36,76.36,0,0,1,7.09-29.72,214.15,214.15,0,0,1,90.74-41,216.6,216.6,0,0,1,28.12-3.55A213.37,213.37,0,0,1,475,90.34Z"/><path fill="#fff" fill-rule="evenodd" d="M607.2,231.79c-3.17.22-7.76,1-8.34,1-9.69.06-19.4.05-29.08.55a182.63,182.63,0,0,0-73.13,19.23c-21,10.55-40,24.45-58.3,39.08-14.5,11.59-28.55,23.72-43.11,35.22a1.25,1.25,0,0,1-.2.14l4.79-3.93c3.17-2.58,6.33-5.17,9.39-7.83a370.47,370.47,0,0,0,27-25.51c38.38-40.79,59.16-61.49,63.56-88.8,7.16-44.4-34.88-61.29-23-98.39a42.3,42.3,0,0,1,1.86-4.83A213,213,0,0,1,507.27,111q4.19,2.32,8.26,4.83l.7.43c3.84,2.37,7.6,4.88,11.27,7.49A215.28,215.28,0,0,1,607.2,231.79Z"/><path fill="none" stroke="#fff" stroke-linecap="round" stroke-linejoin="round" stroke-width=".5" d="M606.78,298.62a204.28,204.28,0,1,0-408.56,0c0,.54,0,1.1,0,1.64a203.62,203.62,0,0,0,58.3,141.27l.07.08c.54.55,1.08,1.09,1.64,1.63a201.88,201.88,0,0,0,22.84,19.67l.56.42a2.73,2.73,0,0,0,.24.17,203.73,203.73,0,0,0,58.2,29.69l1.34.44q2.5.78,5.05,1.5c1.12.32,2.24.62,3.37.92"/><path fill="none" stroke="#feb856" stroke-miterlimit="10" d="M281.64,463.33a2.73,2.73,0,0,0,.24.17"/><path fill="none" stroke="#feb856" stroke-linecap="round" stroke-linejoin="round" d="M606.78,298.62A204.46,204.46,0,0,0,375.63,96.1"/><line x1="313.12" x2="559.39" y1="446.36" y2="446.36" fill="none" stroke="#fff" stroke-linecap="round" stroke-linejoin="round" stroke-width=".5"/><line x1="246.49" x2="294.43" y1="446.36" y2="446.36" fill="none" stroke="#fff" stroke-linecap="round" stroke-linejoin="round" stroke-width=".5"/><polyline fill="none" stroke="#fff" stroke-linecap="round" stroke-linejoin="round" stroke-width=".5" points="256.18 456 272.25 456 549.7 456"/><path fill="#f1c388" fill-rule="evenodd" d="M517.13 383.73s1-12.39 4-21.47 2.81-23.12-10.9-23.78c0 0 1.16 9.91-1.32 16.35S514.49 383.56 517.13 383.73zM552.3 349.15a37.12 37.12 0 01-6.44 26.42c-9.08 12.72-20.08 33-20.08 33s2.58-25.43 3.07-30.39 3.8-19 15.19-22.12C544 356.09 551.64 353.44 552.3 349.15zM527.9 415.1s-11.13-7.1-21.2-1-21.64 17-37 5.45c0 0 .82-2.34 2-1.42s5.28 1.26 10.07-2.71S508 390 527.9 415.1z"/><path fill="#f1c388" fill-rule="evenodd" d="M523.44,400.35s-4.32-6.11-34.36,1.65c0,0-10.23.33-12.87-6.6s4.79,2.48,14.53-1.65S514,384.83,523.44,400.35Z"/><path fill="#f1c388" fill-rule="evenodd" d="M513.58 380.76s-6.3-8.89-16.7-10.64-19-5.78-19.82-7.56-3 8.76 5.45 12.32 31.87 11.7 39.3 20.51zM529.74 450.06s-9.64-3.3-12.62 2.48-7 27.66-34.71 24.89c0 0 4.64-1.44 8.61-11.35S504.37 440.48 529.74 450.06z"/><path fill="#f1c388" fill-rule="evenodd" d="M530.46,445.61s-19.16-14.19-36.17-3.12-5.3,12.88.32,9.91S515.1,439.82,530.46,445.61Z"/><path fill="#f1c388" fill-rule="evenodd" d="M574.16,410.76s-5.94,3.79-7.1,10.56S559,435.2,548.89,438.17a82.81,82.81,0,0,0-19.15,8.92S543,408.61,574.16,410.76Z"/><path fill="none" stroke="#f1c388" stroke-miterlimit="10" d="M519.34,478.67s14-24.26,10.57-48.87-7.77-38.74-24.45-65"/><path fill="#f1c388" fill-rule="evenodd" d="M508.44,370.12s-12.39-25-25.6-26.52-14.53-4.13-14.53-4.13,4.95,15.85,17.84,21.14S508.44,370.12,508.44,370.12Z"/><path fill="none" stroke="#f1c388" stroke-miterlimit="10" d="M526.6 411.49s9.25-17.61 16.08-14.09S528.8 414.14 526.6 411.49zM529.74 449.37s17.83-10.57 21.8-4.41-21.8 5.73-21.8 5.73M519.84 478.37s6.2-14.43-3.44-12.46-1.8 16.66-1.8 16.66"/><path fill="#f1c388" fill-rule="evenodd" d="M530.62 442.92s-3.74-7.82-9.69-9.58C520.93 433.34 527.43 429.59 530.62 442.92zM540.19 424.43s-7.8 9.8-9.56 16.85A15.59 15.59 0 01540.19 424.43zM533.21 450.69s5.39 6.36 5.17 10.39-8.64-9.95-8.64-9.95zM526.6 411.84s10 4.11 10.49 8.4C537.09 420.24 527.36 417.56 526.6 411.84z"/><path fill="#feb856" d="M575.68,401.28a5.58,5.58,0,1,0-5.58-5.58C570.38,398.49,572.61,401.28,575.68,401.28Z"/><path fill="#fff" d="M334.29,471.77A2.79,2.79,0,1,0,331.5,469,3,3,0,0,0,334.29,471.77Z"/><path fill="#f53c4e" d="M558.32,223.71a4.22,4.22,0,0,0,4.23-4.22,4.23,4.23,0,1,0-8.45,0A4.37,4.37,0,0,0,558.32,223.71Z"/><path fill="#fff" d="M479.05,433.85a20.77,20.77,0,0,1-20.73,20.73h-111a20.78,20.78,0,0,1-20.74-20.73v-262a20.78,20.78,0,0,1,20.74-20.74H459.1a20.78,20.78,0,0,1,20.74,20.74V434.11h-1v-.26Z"/><path fill="#1c3754" d="M459.1,151.16a20.78,20.78,0,0,1,20.74,20.74V434.64a20.78,20.78,0,0,1-20.74,20.73H347a20.78,20.78,0,0,1-20.74-20.73V171.9A20.78,20.78,0,0,1,347,151.16Z"/><path fill="#fff" d="M469.34,171.11V433.85a9.4,9.4,0,0,1-7.09,9.45,11.85,11.85,0,0,1-3.15.26H345.45a9.86,9.86,0,0,1-8.4-9.71v-262c0-5.25,3.42-9.19,8.4-9.71h18.11a3.59,3.59,0,0,1,3.68,3.67,8.07,8.07,0,0,0,7.87,7.88h57a8.07,8.07,0,0,0,7.87-7.88,3.59,3.59,0,0,1,3.68-3.67H459.1v-1.05a12.9,12.9,0,0,1,3.15.26A10.25,10.25,0,0,1,469.34,171.11Z"/><path d="M469.34,171.11V433.85a9.4,9.4,0,0,1-7.09,9.45,11.85,11.85,0,0,1-3.15.26H345.45a9.86,9.86,0,0,1-8.4-9.71v-262c0-5.25,3.42-9.19,8.4-9.71h18.11a3.59,3.59,0,0,1,3.68,3.67,8.07,8.07,0,0,0,7.87,7.88h57a8.07,8.07,0,0,0,7.87-7.88,3.59,3.59,0,0,1,3.68-3.67H459.1v-1.05a12.9,12.9,0,0,1,3.15.26A10.25,10.25,0,0,1,469.34,171.11Z" style="isolation:isolate" fill="url(#a)" opacity=".3"/><path fill="#feb856" d="M479.36,198.93v1.58c0,8.66-6.82,15.75-15.22,15.75-8.66,0-15.22-7.88-15.22-16.54V200c0,8.67-7.88,14.18-16.28,14.18-8.66,0-14.17-5.51-14.17-14.18,0,8.67-6.82,16.54-15.49,16.54-7.61,0-14.17-6.56-15-14.44V200c0,8.67-7.87,14.18-16.53,14.18s-14.44-4.73-14.44-13.13v1.05a15.29,15.29,0,0,1-15.13,14.7c-8.52.05-15.32-7.18-15.32-15.7V182.66a6,6,0,0,1,1.58-4.2L336.05,163a4.85,4.85,0,0,1,4.33-2.65H462.87a3.31,3.31,0,0,1,2.69,1.37l12.23,16.74a8.22,8.22,0,0,1,1.57,4.2V199.2h0Z"/><path fill="#fff" d="M388 178.46a5.86 5.86 0 00-.26 2.1v19.16c0 8.66-7.09 16.54-15.49 16.54-8.66 0-15.22-7.09-15.22-15.75v.79l.26-19.69a5.82 5.82 0 011.05-3.41l8.93-16 1.22-1.84h26.17zM417.68 178.46a5 5 0 01.27 2.1v18.9c0 8.66 6 16.53 15.48 16.53 8.66 0 15.23-7.08 15.23-15.74V201l-.27-19.68a8.14 8.14 0 00-.78-3.41l-8.93-16-1.05-1.57H411.89zM364.28 362.48H319.11a6.62 6.62 0 01-6.56-6.56V301.05a6.62 6.62 0 016.56-6.56h45.17a6.62 6.62 0 016.56 6.56v54.87A6.35 6.35 0 01364.28 362.48z"/><path fill="#f9d8ae" d="M352.65 343.69H321.34a1.56 1.56 0 01-1.64-1.64 1.66 1.66 0 011.64-1.64H352.8a1.56 1.56 0 011.64 1.64A1.69 1.69 0 01352.65 343.69zM335.21 353.08H321.49a1.56 1.56 0 01-1.64-1.64 1.91 1.91 0 011.64-1.64h13.87a1.57 1.57 0 011.64 1.64C336.7 352.34 336.1 353.08 335.21 353.08z"/><path d="M357.87,310.15c-.15-.15-.3-.3-.45-.3-1.93-1.64-3.72-3.28-5.81-4.77a1.27,1.27,0,0,0-.9-.3h-4.47a.94.94,0,0,0-1,1,3.05,3.05,0,0,1-2.83,2.84,3.1,3.1,0,0,1-3.14-2.69c-.14-1.49-.44-1-5.06-1.19a2.42,2.42,0,0,0-1.35.45c-1.93,1.64-4,3.28-5.81,4.77-.15,0-.15.15-.3.15-.59.44-.59.74-.15,1.49,1.05,1.19,1.94,2.23,2.84,3.43.44.44.59.59,1.64.15a11.34,11.34,0,0,0,2.23-1.2v14.61c0,1.05.15,1.35,1.34,1.35h14.76c1.2,0,1.34-.15,1.34-1.35V314c1.2.45,1.94,1.05,2.54,1.2,1,.44,1.19.29,1.64-.15l3-3.43C358.47,311.19,358.47,310.74,357.87,310.15Z" style="isolation:isolate" fill="#fcefdd" opacity=".5"/><path fill="#f9d8ae" d="M348.93 315.07l-1.64 1.19a.94.94 0 01-.9 0l-1.64-1.19a.46.46 0 01-.15-.3v-2.54a.32.32 0 01.3-.29h3.73a.32.32 0 01.3.29v2.69C349.07 314.92 348.93 315.07 348.93 315.07zM331.48 315.22c-1 .44-1.19.29-1.64-.15-1-1.2-1.94-2.24-2.83-3.43-.45-.6-.45-1.05.15-1.49.15 0 .15-.15.3-.15zM358.17 311.64l-3 3.43c-.45.44-.6.44-1.64.15l4-5.37c.15.15.3.3.45.3C358.62 310.74 358.62 311.19 358.17 311.64z"/><path fill="#fff" d="M484.89,362.48H439.72a6.62,6.62,0,0,1-6.56-6.56V301.05a6.62,6.62,0,0,1,6.56-6.56h45.17a6.62,6.62,0,0,1,6.56,6.56v54.87A6.53,6.53,0,0,1,484.89,362.48Z"/><path fill="#f9d8ae" d="M473.41 343.69H442a1.56 1.56 0 01-1.64-1.64 1.65 1.65 0 011.64-1.64h31.45a1.56 1.56 0 011.64 1.64A1.75 1.75 0 01473.41 343.69zM455.67 353.08H441.81a1.56 1.56 0 01-1.64-1.64 1.9 1.9 0 011.64-1.64h13.86a1.64 1.64 0 010 3.28z"/><path d="M471.47,331l-5.66.74a.77.77,0,0,1-.6-.29l-.15-.6-3.57-14-.3-2.69-3.58,16.4-.15.75c0,.3-.3.44-.6.3l-4.77-.45h-.44c-.3,0-.45-.3-.45-.6l.15-.59,3.58-23.26.14-1.05c0-.14.15-.29.45-.29h11.33c.15,0,.45.15.45.29l.15.75v.15l4.62,23.26v.29A.82.82,0,0,1,471.47,331Z" style="isolation:isolate" fill="#fcefdd" opacity=".5"/><path fill="#f9d8ae" d="M467.45 310.89a7.76 7.76 0 01-3.58-3c-.15-.15 0-.3.15-.45s.3 0 .45.15a6.8 6.8 0 003.13 2.69c.15.15.3.29.15.44A.52.52 0 01467.45 310.89zM455.07 310.89a7.66 7.66 0 003.58-3c.15-.15 0-.3-.15-.45s-.29 0-.44.15a6.85 6.85 0 01-3.13 2.69c-.15.15-.3.29-.15.44A.52.52 0 00455.07 310.89zM461.19 312.23a.31.31 0 01-.3-.29V307a.3.3 0 11.6 0v4.92S461.34 312.23 461.19 312.23z"/><path fill="#f9d8ae" d="M467.45 306.72H454.78l.15-1.05c0-.14.14-.29.44-.29H466.7c.15 0 .45.15.45.29zM457.31 330.57l-.15.75c0 .3-.3.44-.59.3l-4.78-.45h-.44c-.3 0-.45-.3-.45-.6l.15-.59zM471.47 331l-5.66.74a.77.77 0 01-.6-.29l-.15-.6 6.71-.6v.3C472.07 330.57 471.92 330.87 471.47 331z"/><path fill="#fff" d="M431.37,374.7H371.29a8.84,8.84,0,0,1-9-8.79V292.85a8.84,8.84,0,0,1,9-8.79h60.08a8.84,8.84,0,0,1,8.95,8.79v73.06A9.25,9.25,0,0,1,431.37,374.7Z"/><path fill="#f9d8ae" d="M416 349.51H374.27a2.28 2.28 0 01-2.24-2.09 2.18 2.18 0 012.24-2.09H416a2.27 2.27 0 012.24 2.09A2.38 2.38 0 01416 349.51zM426 321.33a6.55 6.55 0 00-.59-1.05 6.79 6.79 0 00-3.58-2.53 27.81 27.81 0 00-6.11-1.19 3.72 3.72 0 01-1.35-.15c-5.36-.6-9.69-1.34-19.23-13.12-1-1.19-1.34-2.39-2.53-3.58-1.05-1-2.84.15-4.92.6a4.6 4.6 0 01-1.34.15 34.25 34.25 0 01-5.52-.45c-2.53-.15-1-1.64-4.17 17.59-.15 1.34-.45 3-.6 4.32a31 31 0 000 3.73c0 .6 0 1.34.74 1.34 8.05.75 13.27.45 26.09.45 6.56 0 12.83 0 19.24-1.19l1.64-.15c1.19-.15 2.83-.6 2.83-1.64A8.75 8.75 0 00426 321.33z"/><path fill="#f9d8ae" d="M416,316.56l-1.34,4.32a28.19,28.19,0,0,1-21.17-12.22c-1.64-2.39-2.83-4.92-4.47-6.86l-1.19-1.19c2.23-.45,3.72-1.79,4.92-.6a26.43,26.43,0,0,1,1.79,2.38c.14.15.44.6.59.75l.15.15a24.46,24.46,0,0,0,1.79,1.94l.6.59a20.05,20.05,0,0,0,1.79,1.94l.59.6,1.79,1.79.6.59a6.85,6.85,0,0,0,1.79,1.35c.15.14.59.44.74.59.45.45,1,.6,1.34,1.05.45.14.6.44,1.05.59a21.87,21.87,0,0,1,2.53,1.19,2.55,2.55,0,0,0,1.05.15,17.3,17.3,0,0,0,3.87.6C415,316.56,415.42,316.56,416,316.56Z"/><path d="M426.6,325.06c0,1-1.64,1.34-2.83,1.64l-1.64.14c-6.27,1.2-12.82,1.2-19.24,1.2-12.82,0-18,.44-26.09-.45-.59,0-.59-.75-.74-1.34v-3.73c4.47.45,23.85,1.34,38.46-.15a60.29,60.29,0,0,0,10.74-1.94c.15.45.44.6.59,1.05A6.64,6.64,0,0,1,426.6,325.06Z" style="isolation:isolate" fill="#fcefdd" opacity=".5"/><path d="M426,321.33a39.5,39.5,0,0,1-9.24,1.94,3.28,3.28,0,0,1-1.34-.15,2,2,0,0,1-.45-.75v-.45a21.38,21.38,0,0,1-.15-5.36,32,32,0,0,1,7.46,1.34,6.06,6.06,0,0,1,3.57,2.53C425.56,320.43,425.85,320.88,426,321.33Z" style="isolation:isolate" fill="#fcefdd" opacity=".5"/><path fill="#f4c589" d="M395 303h0l-2.23 1.79a.66.66 0 01-.45.15c-.15 0-.45 0-.45-.15a.68.68 0 010-.75l2.24-1.78h.15A3.52 3.52 0 00395 303zM397.38 306a.15.15 0 01-.15.15 9.5 9.5 0 01-2.24 1.94.64.64 0 01-.44.15c-.15 0-.45 0-.45-.15a.68.68 0 010-.75c.74-.59 1.34-1.19 2.23-1.93.15-.15.15-.15.45-.15A3.19 3.19 0 00397.38 306zM399.76 308.51c0 .15 0 .15-.15.15a9.69 9.69 0 01-2.23 2.08c-.15.15-.15.15-.45.15s-.15 0-.45-.15a.66.66 0 010-.74 10 10 0 012.24-2.09.66.66 0 01.45-.15A3.26 3.26 0 00399.76 308.51zM402.3 310.89c0 .15 0 .15-.15.15a12 12 0 00-2.39 2.39c-.15.15-.15.15-.44.15s-.15 0-.45-.15a.68.68 0 010-.75 19.56 19.56 0 012.38-2.53h.15C401.7 310.45 401.85 310.89 402.3 310.89zM404.68 313a31.46 31.46 0 00-1.64 3c0 .15-.15.15-.44.15h-.15c-.15-.15-.45-.45-.15-.74.59-1.05 1-1.94 1.64-3a.15.15 0 01.15-.15A1.62 1.62 0 00404.68 313zM407.07 314.47l-.45 3.13a.52.52 0 01-.59.45c-.15 0-.45-.45-.45-.6l.59-3.28a.15.15 0 01.15-.15C406.47 314 406.62 314.17 407.07 314.47zM410.65 315.81a14.37 14.37 0 01-.45 2.69c0 .15-.15.44-.6.44h-.15c-.14 0-.44-.44-.44-.59a20 20 0 00.44-2.69C409.75 315.51 410.2 315.81 410.65 315.81z"/><path fill="#fff" d="M385.3,313a4.17,4.17,0,0,0,4.18-4.17,4.08,4.08,0,0,0-4.18-4.18,4.18,4.18,0,0,0,0,8.35Z"/><path fill="#feb856" d="M385.3,310.74a1.79,1.79,0,1,0-1.79-1.79A1.92,1.92,0,0,0,385.3,310.74Z"/><rect width="90.39" height="5.65" x="346.79" y="239.41" fill="#feb856" rx="2.82"/><rect width="90.39" height="5.65" x="346.79" y="254.47" fill="#feb856" rx="2.82"/><rect width="90.39" height="5.65" x="346.79" y="269.54" fill="#feb856" rx="2.82"/><rect width="60.51" height="5.65" x="346.56" y="383.78" fill="#feb856" rx="2.82"/><rect width="60.51" height="5.65" x="346.56" y="398.85" fill="#feb856" rx="2.82"/><path fill="#feb856" fill-rule="evenodd" d="M322.11,117.82l1.87,6h6l-4.88,3.73,1.86,6-4.88-3.73-4.87,3.73,1.86-6-4.88-3.73h6Z"/><path fill="#fff" fill-rule="evenodd" d="M239.55,256.81l1.15,3.73h3.73l-3,2.3,1.16,3.73-3-2.31-3,2.31,1.15-3.73-3-2.3h3.73Z"/><path fill="#e2ebff" d="M758.07,486.29c.17.33.34.66.5,1Z"/><path fill="#fcf1e3" d="M758.74,487.12a65.86,65.86,0,0,1,9,33,64.18,64.18,0,0,1-13,38.9,64.24,64.24,0,0,1-51.2,25.37c-35.35.17-64.2-28.71-64.2-64.27a64.3,64.3,0,0,1,64.2-64.43,63.39,63.39,0,0,1,35,10.35,66.22,66.22,0,0,1,16.18,15c1.17,1.67,2.33,3.34,3.33,5"/><path fill="#feb856" d="M693.37,456.24a2.17,2.17,0,1,0-2.17-2.17A2.32,2.32,0,0,0,693.37,456.24Z"/><path fill="none" stroke="#f53c4e" stroke-linecap="round" stroke-linejoin="round" d="M666.46,493.3l11,16.53"/><path fill="#fff" d="M729.39,524.35v44.57H666a4.3,4.3,0,0,1-4.33-4.34V524.35Z"/><path fill="#dae1ed" d="M753.4,524.35v40.23a4.31,4.31,0,0,1-4.33,4.34H729.39V524.35Z"/><path fill="#f2c489" d="M753.4,524.35v40.23a4.31,4.31,0,0,1-4.33,4.34H729.39V524.35Z"/><path fill="#feb856" d="M686.37,524.68,699.54,504h68l-13.68,20.7Z"/><path fill="#c57a57" d="M753.4,524.35H729.22l12.18,18.86a4.82,4.82,0,0,0,3.67,2h18.84a1.57,1.57,0,0,0,1.33-2.5Z"/><path fill="none" stroke="#c57a57" stroke-linecap="round" stroke-linejoin="round" d="M661.69 525.85V539M712.88 503.82h-65l9.34 14M754.07 524.68l13.67-20.86H729.39M661.69 560.91v3.67a4.3 4.3 0 004.33 4.34h83.05a4.31 4.31 0 004.33-4.34V553.06"/><path fill="#f2c489" d="M695.87 549.89H669.19a1.17 1.17 0 010-2.34h26.68a1.14 1.14 0 011.17 1.17A1.41 1.41 0 01695.87 549.89zM695.87 555.4H669.19a1.17 1.17 0 010-2.34h26.68a1.14 1.14 0 011.17 1.17A1.41 1.41 0 01695.87 555.4zM681.37 560.91H669a1.17 1.17 0 010-2.34h12.34a1.14 1.14 0 011.16 1.17C682.37 560.24 681.87 560.91 681.37 560.91z"/><path fill="#fff" d="M760.41,456.24l5.17,1.17a4.62,4.62,0,0,1,3.66,3.67l2.34,9.68a2.3,2.3,0,0,1-.67,2.67l-12.17,12.19"/><path fill="#feb856" d="M755.91,488.29l14.67-14.69a2.6,2.6,0,0,0,.67-2.67l-2.34-9.68a5.09,5.09,0,0,0-3.67-3.67l-9.67-2.17a2.3,2.3,0,0,0-2.67.66l-18.84,19.2a2,2,0,0,0,0,2.67l10,10a9.34,9.34,0,0,0,12.17.33"/><path fill="#fff" d="M764.74,466.26a3,3,0,1,0-4.17,0A3.27,3.27,0,0,0,764.74,466.26Z"/><path fill="#e69127" d="M750.74,490.3a9.84,9.84,0,0,1-5.67-1.67,3.37,3.37,0,0,0-1-.67h.16a10.26,10.26,0,0,0,5.17-1.34,1.78,1.78,0,0,1,2.34.17,10.49,10.49,0,0,0,4.67,1.33,3.28,3.28,0,0,1-1,.67A7.79,7.79,0,0,1,750.74,490.3Z"/><path fill="none" stroke="#c57a57" stroke-linecap="round" stroke-linejoin="round" d="M748.57 490a9.73 9.73 0 007.67-1.84M755.91 488.29l14.67-14.69a2.6 2.6 0 00.67-2.67l-2.34-9.68a5.09 5.09 0 00-3.67-3.67l-9.67-2.17a2.3 2.3 0 00-2.67.66l-18.84 19.2a2 2 0 000 2.67l8.17 8.18"/><path fill="none" stroke="#feb856" stroke-linecap="round" stroke-linejoin="round" d="M653.18 492L640 478.78M720.38 476.27l5.18-7.51"/><path fill="none" stroke="#f53c4e" stroke-linecap="round" stroke-linejoin="round" d="M732.56 502.15l5-7.35M707.38 495.47l10.34-15.36"/><path fill="none" stroke="#feb856" stroke-linecap="round" stroke-linejoin="round" d="M699.87,483.12l-.16-18.53"/><path fill="#f53c4e" d="M636.34,500a1.72,1.72,0,0,0,1.84-1.67,1.63,1.63,0,0,0-1.84-1.67,1.68,1.68,0,1,0,0,3.34Z"/><path fill="#feb856" d="M724.89 498.31a1.51 1.51 0 10-1.5-1.51C723.22 497.64 723.89 498.31 724.89 498.31zM769.08 489.79a1.67 1.67 0 001.67-1.67 1.58 1.58 0 00-1.67-1.67 1.67 1.67 0 000 3.34z"/><path fill="none" stroke="#c57a57" stroke-linecap="round" stroke-linejoin="round" d="M753.4 524.35H729.22l12.18 18.86a4.82 4.82 0 003.67 2h18.84a1.57 1.57 0 001.33-2.5zM661.69 524.68h67.7"/><path fill="#e69127" d="M772.61,464.6a8.19,8.19,0,0,1-2.33,1.67.16.16,0,0,0-.17.16l-.5-2a9,9,0,0,0,1.5-1.17,8.77,8.77,0,0,0,2.34-4.17,4.19,4.19,0,0,0-.84-3.34c-1.83-1.67-5.16-1.17-7.67,1.34l-.66.66a10.88,10.88,0,0,0-1.84,3.68v.16a4.23,4.23,0,0,0,.84,3.18,3.53,3.53,0,0,0,.83.66c.17.17.17.17.33.17l.17.17a1.67,1.67,0,0,1-.67.83,3.05,3.05,0,0,0-.83.67,8.15,8.15,0,0,1-1.5-1,5.3,5.3,0,0,1-1.5-3.84,3.19,3.19,0,0,1,.17-1.17,7.68,7.68,0,0,1,1.5-3.67,5.28,5.28,0,0,1,1.33-1.5c3.17-3.18,7.84-3.84,10.34-1.34C776.45,456.59,775.78,461.43,772.61,464.6Z"/><path fill="#c57a57" d="M755.74,501.81V502a5.34,5.34,0,0,1-1.67,4.34,5.91,5.91,0,0,1-4.34,1.67h-.16a3.78,3.78,0,0,0-2.67,1,4.3,4.3,0,0,0-1.17,2.67,5.31,5.31,0,0,1-1.67,4.34,5.87,5.87,0,0,1-4.33,1.67h-.84a1.09,1.09,0,1,1,.17-2.17h.5a3.52,3.52,0,0,0,2.84-1,3.33,3.33,0,0,0,1.16-2.67,5.34,5.34,0,0,1,1.67-4.34,5.91,5.91,0,0,1,4.34-1.67h.16a3.81,3.81,0,0,0,2.67-1,4.3,4.3,0,0,0,1.17-2.67V502a5.31,5.31,0,0,1,1.67-4.34,5.88,5.88,0,0,1,4.33-1.67h.17a3.42,3.42,0,0,0,3-1.33.95.95,0,1,1,1.5,1.16c-.16.5-.33.5-.33.5a5.91,5.91,0,0,1-4.34,1.67h-.16"/><path fill="none" stroke="#feb856" stroke-linecap="round" stroke-linejoin="round" d="M642.5 569.5h130M632.5 569.5h5"/><path fill="#f2c489" d="M729.39,524.68l-13.34-20.86h-68.2l13.67,20.7h67.87Z"/><path fill="#c57a57" d="M670.19 533.86h-.5a.71.71 0 01-.66-.67.61.61 0 01.66-.67h.5a.72.72 0 01.67.67A.61.61 0 01670.19 533.86zM670.19 536.7h-.5A.72.72 0 01669 536a.61.61 0 01.66-.67h.5a.67.67 0 110 1.34zM670.19 539.37h-.5a.71.71 0 01-.66-.67.61.61 0 01.66-.67h.5a.72.72 0 01.67.67A.71.71 0 01670.19 539.37zM670.19 542h-.5a.71.71 0 01-.66-.67.6.6 0 01.66-.66h.5a.71.71 0 01.67.66A.61.61 0 01670.19 542z"/><path fill="#fff" d="M697.21,533.86H688a.71.71,0,0,1-.67-.67.61.61,0,0,1,.67-.67h9.17a.72.72,0,0,1,.66.67A.71.71,0,0,1,697.21,533.86Z"/><path fill="#f2c489" d="M697.21 536.36H683.87a.71.71 0 01-.67-.66.61.61 0 01.67-.67h13.34a.71.71 0 01.66.67A.6.6 0 01697.21 536.36zM707.88 539.37h-24a.71.71 0 01-.67-.67.62.62 0 01.67-.67h23.84a.72.72 0 01.67.67C708.38 538.87 708.05 539.37 707.88 539.37z"/><path fill="#fff" d="M718.05,531.36h-8.34a.71.71,0,0,1-.66-.67.61.61,0,0,1,.66-.67h8.34a.73.73,0,0,1,.67.67C718.72,530.86,718.38,531.36,718.05,531.36Z"/><path fill="none" stroke="#c57a57" stroke-linecap="round" stroke-linejoin="round" d="M725.56,518.84l-9.51-15h-68.2l7.67,11.68"/><path fill="none" stroke="#feb856" stroke-dasharray="4 4" stroke-miterlimit="10" d="M665.24,451.73c10.41,7.32,13,8.76,20,18.19,1.39,2.31,3,4.77,3.27,7.43A11.34,11.34,0,0,1,684,487.93a10.78,10.78,0,0,1-11.55.45,7,7,0,0,1-3.88-6.5,6.45,6.45,0,0,1,5.46-5.3,8.77,8.77,0,0,1,7.45,2.48,17,17,0,0,1,4.26,6.82c2.36,6,2.35,9.14,5.43,19.92"/><path fill="#f7d6ab" d="M666 443.48c1 1.45.26 3.26-1.76 4-2 .94-3.5 1.5-4.47.27s.21-2.87 1.49-4.62C662.77 440.9 665 442.15 666 443.48zM657.5 455.92a3 3 0 003.61-2.83c-.07-2.29 0-4-1.67-4.45s-2 .93-3.47 3.14C654.92 453.73 655.72 455.63 657.5 455.92z"/><path fill="#feb856" d="M657.56,447a2.3,2.3,0,0,1,2.66-1,2.86,2.86,0,0,1,1,.47c1.84,1.15,2.75,2.94,2.06,4-.67,1.26-2.74,1.33-4.37.15l-1.06-.9a2.16,2.16,0,0,1-.32-2.71Z"/><path fill="#feb856" fill-rule="evenodd" d="M629.13,458.85l1.87,6h6l-4.88,3.72,1.86,6-4.88-3.72-4.87,3.72,1.86-6-4.88-3.72h6Z"/><path fill="none" stroke="#feb856" stroke-linecap="round" stroke-linejoin="round" d="M209.13 589.83h72.75M105.19 583.13h77"/><path fill="#fd8f6a" fill-rule="evenodd" d="M154.69,549.34s.67,5.37.73,8.41a5.84,5.84,0,0,1-3.06,4.62c-2.83,1.33-6.27-4.42-6.27-4.42l-2.25-1.6.09-7.3Z"/><path fill="#df9a79" fill-rule="evenodd" d="M228.08,556.38a56.73,56.73,0,0,0,2,7.58c1,2.48-1.8,8.91-3.5,8.25s-6.23-5.17-7-5.16-2-3.3-2-3.3.63-3.48.66-3.89a16.2,16.2,0,0,0,.08-4.27Z"/><path fill="#4faea7" fill-rule="evenodd" d="M232.33,526.81c-.11,8.37-1.47,22.65-.82,24.91a.64.64,0,0,0,.14.28s0,3.66-1.08,5.24c0,0-7.31,2.13-13.07,0a3.17,3.17,0,0,1-1.77-3.57s-.56-1.76.29-2.46c0,0-.43-14.65-2-21s-3.12-20.62-2.54-23.2c0,0-.68-5.91.15-7.44,0,0-.39-1.13-.94-3-2.49-8-9-29.49-9.32-31.1-.29-1.88-5.1-13.09-7.33-15.92a3.64,3.64,0,0,1-.44-.44s-7.46,5.29-10.29,13.51-5.09,15-7.7,21.07c-2.3,5.22-6.41,9.64-8,15.19-2.64,9.33-8.62,38.7-10.25,47.7-.27,1.5-.43,2.43-.42,2.61,0,1.25-5.22,1-8.48.47s-6-.76-6-.76.25-2.1.35-3.4c0-.31,0-.59,0-.77.15-4.74-.88-6.05-.19-18.36s1.92-23.79,7-36c0,0,3.84-21.4,5-23.25s1.48-12.18,2.13-15-.2-3-.66-3.08-1.87-.12-1.32-3.26a43.06,43.06,0,0,0,3.14-5c.85-1.74,1.29-10.25,1.45-12.8a25.74,25.74,0,0,1,1-4.48c.63-2.16,1.32-4.12,1.32-4.12l1.82-.82,2.06-.92s4.83,1.5,11.85,3.51c9.44,2.72,22.84,6.36,33.68,8.49,8.79,1.73,15.9,2.46,17.85.92-.8,1.11-2.54,4-1.44,6.58a18.75,18.75,0,0,1,.64,6.39s2.35,24.15,1.08,30.27c0,0,1.25,8.29-.17,9.51,0,0-1,3.44-.1,5.5s2,2.56,2.28,5.05-.78,3.67-.77,4.57.81,4.88.78,6.39S232.46,517.86,232.33,526.81Z"/><path fill="none" stroke="#fff" stroke-linecap="round" stroke-linejoin="round" stroke-width=".25" d="M145.35,546.91c-6.13-9.16,15.42-97.84,15.42-97.84s2.7-19.49,6.76-20.14"/><circle cx="233.42" cy="534.28" r=".71" fill="#fefcf9"/><path fill="#479da2" fill-rule="evenodd" d="M229.52,430.09c0,.07-.21.2-.44.53A1.07,1.07,0,0,0,229.52,430.09Z"/><path fill="#0e3131" fill-rule="evenodd" d="M171.8,449.9a111.57,111.57,0,0,0-16.72-.77s-2.5-5.69,3.2-3.65C161.16,446.5,169.9,448.18,171.8,449.9Z"/><path fill="none" stroke="#fff" stroke-linecap="round" stroke-linejoin="round" stroke-width=".25" d="M167.9,492.32s-3.85-4.67-7.94-3.7"/><path fill="#df9a79" fill-rule="evenodd" d="M190.19,306.81c-.14,1.1.37,2.44,1.4,4a38,38,0,0,0,5,5.64c2,1.85,4,4.82,6.41,6.56a8.19,8.19,0,0,0,2.92,1.44c0-.14.29-.26.62-.31a24.56,24.56,0,0,1,4.11-.27c2.15-.07,4.31-.27,4.68-.8,1.81-2.91,5.07-5.59,5.32-9.29,0,0-.26-1.19-.44-2.52a9.34,9.34,0,0,1-.19-2.22c0-.48.12-.75.33-.8,0,0-12.2-3.16-12.1-9.77,0-3.58-.39-4.16.41-4.11-.22-2.64-2.41-3.06-3.18-3.59a34.84,34.84,0,0,0-4-1.58s2.12,11.45.6,14.11c-2.28,3.92-8.1,2.7-10.64,2.6-.67,0-1.08.07-1.22.26A2.14,2.14,0,0,1,190.19,306.81Z"/><path fill="#905f37" fill-rule="evenodd" d="M245.32,323.93l-.78,5.6-.48,4.25A61.93,61.93,0,0,1,245.32,323.93Z"/><path fill="#5d1212" fill-rule="evenodd" d="M247.23,336.47a35.94,35.94,0,0,1-3.43,3.08,8.86,8.86,0,0,1-.05-4.21A5.21,5.21,0,0,1,247.23,336.47Z"/><path fill="#df9a79" fill-rule="evenodd" d="M207.06,292.15a4,4,0,0,1-4-.89,8.74,8.74,0,0,1-3.17-4.76c-.68-3-.06-4.21-.06-4.21s1.25-2.61,4.43-.05a20.93,20.93,0,0,1,2.68,2.1l.14,2.91s2.89-.08,2.91-1.46v-5.17s4.87-3.54,4.75-4.86a8,8,0,0,1,.15-2.26c.25-.74,4.38-.33,6.14-2.49,0,0,3.69,1.9,5.67.38,0,0,4.16.07,5.15,3.24,0,0,2.59,5.41,1.73,10.39-.22,1.29-2,2.49-2.1,4.34,0,0-.17,4.47-.43,6.31a43.46,43.46,0,0,1-1,5.66c-.52,1.83-2,3.32-2.22,5.16s-3.6,2.73-7.85,2a28.89,28.89,0,0,1-9.76-5.41,10,10,0,0,1-3.25-7.66Z"/><g clip-path="url(#b)"><path fill="#d5654d" fill-rule="evenodd" d="M233.88,286.29s-13.74,2.88-16.36-14.05l9-2.64,7.71,4.1Z"/></g><path fill="#262d39" fill-rule="evenodd" d="M234.59,284.54s6.8-3.34,5-11.05c-.84-3.5-7-11.5-9.52-14.29-10.82-11.68-22.57,1.6-24.27,4.94,0,0-1.71-.53-1.83-.61-1.52-.38-2.72-.52-4.05.35a13.5,13.5,0,0,0-3.28,2.89c-5.33,6.47-2.48,15.07-.34,22.24.21.78.49,1.62.71,2.4,1,3,1.86,6.32,3.84,8.87a9.31,9.31,0,0,1,.91,1.37c.69,1.7,1.17-.47,1.22-1.23a14.44,14.44,0,0,0-.28-4.77,48.83,48.83,0,0,0-1-5.72,9.55,9.55,0,0,1-2.09-5.86c0-2.14,1.26-4.95,7.35.28a16.33,16.33,0,0,0,.15,2.9s3.22,1,3.16-.13l-.17-6.49s7,6.81,8-6.16c.17-2.61,2-1.24,2.46.24C221.43,277.8,229.72,288.28,234.59,284.54Z"/><path fill="none" d="M246.32,312.9s-6.15,5.65-6.38,20.26a18.05,18.05,0,0,1-1.13,4.82l3.35,3"/><path fill="#0e3131" fill-rule="evenodd" d="M245.41,312.42c-1.45,2.73-4.09,8-4.53,11.7-.57,4.44-1.48,11.07-1.62,14.16a4.51,4.51,0,0,1,1.48,0,6.83,6.83,0,0,1,3.19,1.39c-.29-.64-.15-2.77.13-5.85a49,49,0,0,1,1.25-9.78v-.21c1.15-8.19,5.25-8.33,5.25-8.33-.52-1.14-2.66-1.29-3.93-2.34A2.28,2.28,0,0,0,245.41,312.42Z"/><path fill="#df9a79" fill-rule="evenodd" d="M284.39,328.39c-.2.62-2.43,1.71-3,2.08-1.17.8-2.35,1.59-3.6,2.28a26.27,26.27,0,0,1-7.84,2.72c-1.31.27-10,1.49-17,1.9-4.91.28-8.95.16-9-1a67.18,67.18,0,0,1,.24-7.1c.51-5.68,2-12.87,6.06-13.93l10.86.23,1.19,0-.29-1.26c-.35-1.65-1-4.61-1.29-7.11,0,0-3.13-10-6-14.93-.91-1.61-1.8-2.7-2.53-2.74-1.79-.11-3.57-.28-5.34-.49-2.63-.29-5-1.68-7.42-2.52-2.25-.78-7.2-.67-6.61-4.35h0l.1-.47a10.91,10.91,0,0,1,2.3.15,29.81,29.81,0,0,1,4.51,1.23.42.42,0,0,0,.27,0c.16-.05.2-.28.12-.44a.83.83,0,0,0-.41-.3c-1.77-.84-3.71-1.29-5.53-2a10.7,10.7,0,0,1-3.4-2c-.35-.33-2.19-2.66-.52-2.23a2.68,2.68,0,0,1,.16-.93.65.65,0,0,1,.28-.4.65.65,0,0,1,.49.06c.36.16.68.4,1,.55.18.07,1.17.14,1.22.3a.87.87,0,0,1,.26-1c.65-.51,1.57.29,2.18.5a13.18,13.18,0,0,0,2.25.45l.42.07c1.71.3,3.33-.25,5-.26a13.4,13.4,0,0,1,5.27,1.46c1.75.74,3.55,1.35,5.33,2a18.12,18.12,0,0,1,5.8,3.4s1.57.51,3.51,4.57a94.62,94.62,0,0,0,9,14.27C275.19,304.41,286.77,320.76,284.39,328.39Z"/><path fill="#d5654d" fill-rule="evenodd" d="M252.94,337.37c-4.91.28-8.95.16-9-1a67.18,67.18,0,0,1,.24-7.1l1.48-.24S248.82,334.72,252.94,337.37Z"/><path fill="none" d="M241,287.17s-1.59-1.21-5.21-1.38c0,0-3.36-.78-2.91-3.58l.1-.47a16.15,16.15,0,0,1,6.94,1.49s1-.28-.47-1-9.36-2.42-9.87-5.9c0,0-.1-.42.76-.23l.15-1.23s.5-.51,1.83.61l1.2.22s-.54-2,2.12-.69c0,0,5,1.64,7.49.29,0,0,1.49-.17,4.49,1.13s9.13,2.88,12.41,5.93c0,0,1.58.52,3.52,4.58a93.91,93.91,0,0,0,9,14.25c2.61,3.21,14.19,19.56,11.81,27.2,0,0-5.63,3.9-8.76,5.62-2.65,1.48-12.92,2.58-16.89,2.87s-12.73.74-14.79-.5c0,0-.12-19.38,6.3-21l12.05.26s-1.09-4.7-1.59-8.38c0,0-5.47-17.47-8.48-17.67C252.24,289.5,245.33,289.53,241,287.17Z"/><path fill="none" stroke="#fff" stroke-linecap="round" stroke-linejoin="round" stroke-width=".25" d="M166.24 498.07a11.28 11.28 0 01-6.21-.42 8.25 8.25 0 01-2.47-2.16 4.36 4.36 0 00-2.27-1.26M226.72 493.5s-3.85-4.66-7.94-3.7M225.06 499.25a11.19 11.19 0 01-6.21-.41 8.39 8.39 0 01-2.47-2.16 4.36 4.36 0 00-2.27-1.26M227.29 550.19s-6-.26-8.9 1.62"/><path fill="#0e3131" d="M194,449.52c2.23,2.83,7,14.12,7.32,15.93.3,1.6,6.84,23.14,9.33,31.1a2.21,2.21,0,0,0,.11-2.55,5.93,5.93,0,0,1-1-3.72c.08-1.17-1.46-4.3-1.86-6.26s-2.23-9.87-2.49-12a88.15,88.15,0,0,0-3.08-11.23c-.64-1.49-2.94-7.23-4.43-8.92A7.8,7.8,0,0,0,194,449.52Z"/><path fill="#955e3f" fill-rule="evenodd" d="M153.94,551.43a4.38,4.38,0,0,1,.91,2.38,6.15,6.15,0,0,1-.1,3c-.27.87-1,2.48-.74,2.7l.19.22a.23.23,0,0,1,0,.28c-.25,1.71-.69,3.4-.94,5.11-.15,1.23.42,1.68,1,2.61.43.65,1.21,2,.24,2.57-1.33.74-10.41,3.1-10.93,2s-1.89-15-2-16a4.36,4.36,0,0,1,.36-2.32,4.56,4.56,0,0,1,2-1.9,8.35,8.35,0,0,1,3.31-1C151,550.53,152.85,550.26,153.94,551.43Z"/><path fill="#f7be2d" d="M155.41,583.11c-3.28,1.62-7.33,1.41-10.86.94a10,10,0,0,1-4.92-1.64,6.15,6.15,0,0,1-2.11-3.36,9.34,9.34,0,0,1-.24-1.67,25.56,25.56,0,0,1,.78-6.87l2.54-13.07a1.53,1.53,0,0,1,.16-.34,1.1,1.1,0,0,1,2,.59,116.06,116.06,0,0,0,1.44,11.92,2.16,2.16,0,0,0,2.09,1.86,24.11,24.11,0,0,0,5.82-.92.84.84,0,0,0,.49-1.34c-1.64-2.53-.69-4.32.67-6.86,1.07-2-.22-4.1.6-5.7.19-.37,1.89-.54,2.07-.12.94,2.89-.09,6.2-.66,9.81a17.15,17.15,0,0,0,1.49,9.83,7.21,7.21,0,0,1,.41,1.86C157.39,580,157,582.33,155.41,583.11Z"/><circle cx="154.36" cy="562.57" r=".69" fill="#e89229" transform="rotate(-45.03 154.355 562.558)"/><circle cx="153.67" cy="564.61" r=".69" fill="#e89229" transform="rotate(-45.03 153.667 564.59)"/><circle cx="152.98" cy="567.32" r=".69" fill="#e89229" transform="rotate(-45.03 152.964 567.31)"/><circle cx="141.12" cy="563.07" r=".69" fill="#e89229" transform="rotate(-45.03 141.101 563.057)"/><circle cx="140.86" cy="566.98" r=".69" fill="#e89229" transform="rotate(-45.03 140.851 566.968)"/><circle cx="140.64" cy="570.21" r=".69" fill="#e89229" transform="rotate(-45.03 140.63 570.197)"/><path fill="#f7be2d" fill-rule="evenodd" d="M248.15,586.4c.48,3.89-5.51,3.08-5.51,3.08a21.71,21.71,0,0,1-13.59-3.39,20.31,20.31,0,0,0-9.22-5.5c-4.53-1.48-4.7-3.08-4.7-3.08a6.65,6.65,0,0,1-.17-2c0-4,1.57-11.34,1.89-13.59a11.53,11.53,0,0,1,1.5-4.43c1.23,1.81-.28,6.17-.28,6.17l1.06.27a3.36,3.36,0,0,1,1.72-2.64c2.14-.07,4.24,3.73,4.24,3.73l2.52-.21,1.12-.1a10.36,10.36,0,0,1-1.28-5.88,1.72,1.72,0,0,1,.69-1.36l.46,0a4.45,4.45,0,0,1,3.45,1.36l0,0,.81.91a.39.39,0,0,1,0-.13c-.05-.19.07-.47,1.16-.49,1.61,0,3.48,6.1,4.35,9.25s3.83,7.91,7.08,11.51c2.44,2.7,2.75,5,2.75,6A3.45,3.45,0,0,1,248.15,586.4Z"/><path fill="#262d39" d="M205.67,264.61a2.44,2.44,0,0,0-1.72-1.35,5.11,5.11,0,0,1-1.62-.8,5.69,5.69,0,0,1-2.13-3.25c0,.07.26.09.26.16a7.68,7.68,0,0,0,.94,2,3.46,3.46,0,0,0,1.71,1.43c1,.41,2.5.71,2.89,1.91C205.87,264.69,205.67,264.68,205.67,264.61Z"/><path fill="#262d39" d="M205.7 264.2c.27-1.08-.55-1.83-1-2.68a3.53 3.53 0 01.2-3 13.17 13.17 0 00.94-3 1.82 1.82 0 00-.26-1.18 2.68 2.68 0 00-1.09-.7c-.14 0-.19-.15-.26-.15a4.75 4.75 0 011.55.86 1.33 1.33 0 01.38 1.33 8.66 8.66 0 01-.46 1.9c-.41 1.15-1.16 2.34-.84 3.6s1.48 2 1.13 3.18C206 264.36 205.7 264.27 205.7 264.2zM229.28 258.53a10.21 10.21 0 00-7.69-5.27 9.49 9.49 0 00-4.6.52 5.5 5.5 0 00-2.18 1.51 11 11 0 00-1.48 2.11c-.83 1.32-1.47 3-3.11 3.45-.07 0-.19-.22-.26-.16 1.57-.44 2.21-2 3-3.31a16.63 16.63 0 011.63-2.31 6.32 6.32 0 012.38-1.56 10.21 10.21 0 019.16 1.5 10.75 10.75 0 013.43 3.75C229.54 258.69 229.34 258.67 229.28 258.53z"/><circle cx="141.33" cy="559.84" r=".69" fill="#e89229" transform="rotate(-45.03 141.323 559.827)"/><circle cx="155.19" cy="560.14" r=".69" fill="#e89229" transform="rotate(-45.03 155.19 560.134)"/><ellipse cx="224.56" cy="564.9" fill="#955e3f" rx=".62" ry=".6" transform="rotate(-86.19 224.537 564.895)"/><ellipse cx="226.87" cy="568.3" fill="#955e3f" rx=".62" ry=".6" transform="rotate(-86 228.692 567.944)"/><ellipse cx="228.35" cy="570.35" fill="#955e3f" rx=".62" ry=".6" transform="rotate(-86.19 228.332 570.34)"/><ellipse cx="230.37" cy="572.39" fill="#955e3f" rx=".62" ry=".6" transform="rotate(-86.19 230.347 572.386)"/><ellipse cx="232.1" cy="574.51" fill="#955e3f" rx=".62" ry=".6" transform="rotate(-86.19 232.08 574.498)"/><ellipse cx="240.92" cy="575.1" fill="#955e3f" rx=".62" ry=".6" transform="rotate(-86.19 240.896 575.09)"/><ellipse cx="239.13" cy="571.77" fill="#955e3f" rx=".62" ry=".6" transform="rotate(-86.19 239.108 571.763)"/><ellipse cx="238.17" cy="569.05" fill="#955e3f" rx=".62" ry=".6" transform="rotate(-86.19 238.147 569.04)"/><ellipse cx="237.57" cy="566.79" fill="#955e3f" rx=".62" ry=".6" transform="rotate(-86.19 237.544 566.782)"/><ellipse cx="236.64" cy="563.78" fill="#955e3f" rx=".62" ry=".6" transform="rotate(-86.19 236.62 563.774)"/><path fill="none" stroke="#fff" stroke-miterlimit="10" d="M208,285l9.4,1.93"/><ellipse cx="220.71" cy="288.57" fill="none" stroke="#fff" stroke-miterlimit="10" rx="5.23" ry="3.55" transform="rotate(-86.19 220.7 288.573)"/><ellipse cx="229.55" cy="289.78" fill="none" stroke="#fff" stroke-miterlimit="10" rx="5.23" ry="3.55" transform="rotate(-86 230.543 289.265)"/><path fill="none" stroke="#fff" stroke-miterlimit="10" d="M224.31,287.92,226,288"/><ellipse cx="229.55" cy="290.45" fill="#5e1213" rx=".98" ry=".48" transform="rotate(-85.56 229.557 290.447)"/><ellipse cx="220.7" cy="288.89" fill="#5e1213" rx=".98" ry=".48" transform="rotate(-85.56 220.708 288.889)"/><path fill="none" stroke="#fff" stroke-linecap="round" stroke-linejoin="round" stroke-width=".25" d="M190.79,433.53l2.81,11.78a4.16,4.16,0,0,0,.86,2,2.57,2.57,0,0,0,3.19.18,4.16,4.16,0,0,0,1.63-2.94c.12-.85.05-1.71.11-2.57a8.79,8.79,0,0,1,3.29-6.21"/><path fill="#0e3131" fill-rule="evenodd" d="M227.84,437c-1.26.91-19.87,1.9-21.43,1.94-4.55.15-9.64-1.1-14.12-1.93a63.13,63.13,0,0,1-6.26-1.85c-5.33-1.6-11.06-2.09-16-4.66-3.32-1.74-6.1-4.32-9.08-6.58l-.53-.39c.63-2.16.19-7,.19-7l2.95,2.05c1.52.36,3,.73,4.56,1.06,3.09.67,6.21,1.14,9.35,1.53,9.44,2.72,41.48,3.94,52.31,6.07C230.94,429.25,229.67,435.69,227.84,437Z"/><path fill="#fff" fill-rule="evenodd" d="M245.41,312.42c-1.45,2.66-4.08,7.93-4.54,11.84-.56,4.44-1.55,11.13-1.61,14.16-.41,0-.56.24-.72.64-.25.74-5.74,14.65-6.36,35.92s-1.79,54.21-2.74,56.28c0,0-2.94,5.81-12.44,5.51s-16.95-.16-19.45-.87-9.4-1-14.15-4c-3-2-7.68-3.89-11.26-5.49a24.22,24.22,0,0,1-4.58-2.4c-1-.82-2.84-2.15-4.36-3.53s-2.9-3.05-2.44-4.16c.88-2.21,3.48-8.93,3.55-12.93s.64-24.78.64-24.78l.78-19.87s3.14-2.76,6.06-11.32l-.25-.3a2.16,2.16,0,0,0,1.57-1.41s-6.7-9.2-10.54-12-6.35-4.29-6.45-5.75l.2-.05s4.64-11.34,9.36-14.61a29.87,29.87,0,0,1,8.82-3.75c2.59-.75,5.38-1.37,8.06-1.91l3.84-.73,4.24-.78c0,.09,1.15,2.45,1.23,2.62a25,25,0,0,0,2.49,4c2.36,3.08,4.92,6.5,8.14,8.74,2.77,1.93,7.14,3,10.31,1.56a11.45,11.45,0,0,0,4.79-4.38c.2-.32.39-.64.56-1a18.24,18.24,0,0,0,1.37-3.58c.12-.49,1.12-4.62.74-4.77a3.84,3.84,0,0,1,1.91,1.51s2.51-1.49,2.88,1c0,0,3.34.16,4.62.18,0,0,2.4-1.85,4.3-.13,0,0,1.4-1.91,2.71-.31l3.85.61a9.73,9.73,0,0,0,2.2,0A5.91,5.91,0,0,1,245.41,312.42Z"/><path fill="#955e3f" fill-rule="evenodd" d="M239.67,575.45s-6.08,0-6.4,0c-.41-.78-1.12-2.07-2.13-3.6-2.13-3.24-3.31-4.08-4.74-7a15.45,15.45,0,0,1-1.31-4.25c-.4-2.51.15-3.1.3-3.24a3.93,3.93,0,0,1,2.44-.66,4.17,4.17,0,0,1,1.11,0,6.87,6.87,0,0,1,3.11,2s0,0,0,0a9.37,9.37,0,0,1,.76.78C237.05,564.42,239.67,575.45,239.67,575.45Z"/><path fill="none" stroke="#fff" stroke-linecap="round" stroke-linejoin="round" stroke-width=".5" d="M236.63,563.92s-8.85,2-11.89,1.34c0,0,2.71,3,2.71,2.91Z"/><path fill="none" stroke="#fff" stroke-linecap="round" stroke-linejoin="round" stroke-width=".5" d="M224.5,564.76s4.66,7.55,12.12,8.33,2.5,8.85,4.35,10.28"/><path fill="none" stroke="#fff" stroke-linecap="round" stroke-linejoin="round" stroke-width=".5" d="M236.58,563.64c-.33,2.94-1,4.62-2.21,5s-2-.61-3.14-.21c-1.58.59-2.3,3.3-2.21,5,.12,3.18,2.94,6.12,7.07,7.64"/><path fill="none" stroke="#fff" stroke-linecap="round" stroke-linejoin="round" stroke-width=".5" d="M237.57,566.79s-7.73,3.36-9.22,3.61l9.82-1.48s-5.35,2.81-7.72,3.27l8.68-.42s-6.23,2.79-6.77,2.89l8.56.47"/><path fill="#955e3f" fill-rule="evenodd" d="M248.15,586.4c.48,3.89-5.51,3.08-5.51,3.08a21.71,21.71,0,0,1-13.59-3.39,20.31,20.31,0,0,0-9.22-5.5c-4.53-1.48-4.7-3.08-4.7-3.08a6.65,6.65,0,0,1-.17-2c.27.23,4.69,3.8,7.88,4.16s6.33,5.59,9.26,6.23,12.28,2,16.08,0A3.45,3.45,0,0,1,248.15,586.4Z"/><path fill="none" stroke="#fff" stroke-linecap="round" stroke-linejoin="round" stroke-width=".25" d="M218.86 440.18a33.62 33.62 0 00-8.94 5.22 13.73 13.73 0 01-3 2c-.85.36-1.76.52-2.63.85M158.4 541c-1.22 1.52-4.2 2.59-7.68 2.59-3.7 0-6.83-1.22-7.9-2.89 0 0 0 0 0 0"/><path fill="#0e3131" fill-rule="evenodd" d="M157.35,546.55c-.27,1.5-.43,2.43-.42,2.61,0,1.25-5.22,1-8.48.47s-6-.76-6-.76.25-2.1.35-3.4C149,547.23,153.73,547.28,157.35,546.55Z"/><path fill="none" stroke="#fff" stroke-linecap="round" stroke-linejoin="round" stroke-width=".25" d="M224.5,436.71l1.17,38.52a97.44,97.44,0,0,0,1,13.22c.44,2.67,1.11,5.32,1.29,8,.25,3.68-.39,7.36-.39,11a74.51,74.51,0,0,0,.75,8.57,210.59,210.59,0,0,1,1.32,39.53"/><path fill="#0e3131" d="M230.57,557.24s-7.31,2.13-13.07,0a3.17,3.17,0,0,1-1.77-3.57s-.56-1.76.29-2.46c2.59,1.32,7.43,2.54,15.49.55a.64.64,0,0,0,.14.28S231.68,555.66,230.57,557.24Z"/><path fill="none" stroke="#fff" stroke-linecap="round" stroke-linejoin="round" stroke-width=".5" d="M141.53,559.85s8,7.36,6.37,13.11,1.4,7.27,1.4,7.27"/><path fill="#955e3f" d="M155.41,583.11c-3.28,1.62-7.33,1.41-10.86.94a10,10,0,0,1-4.92-1.64,6.15,6.15,0,0,1-2.11-3.36,9.34,9.34,0,0,1-.24-1.67c2.54,2.08,9.33,6.06,19.92.65C157.39,580,157,582.33,155.41,583.11Z"/><path fill="none" stroke="#fff" stroke-linecap="round" stroke-linejoin="round" stroke-width=".5" d="M141.32 563.08l13-.51 1-2.43-13.8-.36M140.84 570.22l12.07-2.92a6.49 6.49 0 010-1.52 8.34 8.34 0 01.71-1.54l-12.52 2.68"/><path fill="none" stroke="#fff" stroke-linecap="round" stroke-linejoin="round" stroke-width=".5" d="M155.34,560.14a4.21,4.21,0,0,0-3.17,1.11c-1.95,2,.1,5.59-1.21,9-.65,1.75-2.33,3.85-6.66,5.42"/><path fill="#53bab0" fill-rule="evenodd" d="M218.91,326.5c-2.73,4-15.49,2.3-23.5-4.57-4.74-4.07-8.62-10.66-9-15.07l4.24-.78c0,.09,1.15,2.45,1.23,2.62a25,25,0,0,0,2.49,4c2.36,3.08,4.92,6.5,8.14,8.74,2.77,1.93,7.14,3,10.31,1.56a11.45,11.45,0,0,0,4.79-4.38C218.64,320.65,220.41,324.28,218.91,326.5Z"/><path fill="none" stroke="#2c303b" stroke-miterlimit="10" stroke-width=".5" d="M212.41,328.64c-1.62,6.53-3.4,13-7,18.8a19,19,0,0,0-2.32,4.95,34,34,0,0,0-.65,5.88c0,.49-.33,1.14-.78,1a58.33,58.33,0,0,1-.88-7.81q-1.32-20.91-.8-41.9c0-1.53.09-3.05.13-4.58"/><rect width="2.13" height="8.89" x="201.49" y="358.09" fill="#2c303b" transform="rotate(-9.7 196.01 352.53)"/><path fill="#53bab0" fill-rule="evenodd" d="M181.39,361.38s14.37,14.37,18.69,21.75c0,0,1.91,2.78,4.31,0S217,365,216.75,357.25l-2.39-9.39s-3.64,20.42-12.27,30.19c0,0-9.58-14.28-22.81-24.15S181.39,361.38,181.39,361.38Z"/><path fill="none" stroke="#53bab0" stroke-miterlimit="10" stroke-width="2" d="M183.4,370.29s12.49,14.54,17,21.1a2,2,0,0,0,3.25.14c3.08-3.68,9.22-11.55,12.17-18.92"/><path fill="#e9a526" fill-rule="evenodd" d="M214.65,304.76s20.2,6,21.11,6.19c0,0-4.44,0,2,22.83,2.69,9.53-.47,14.58-2.23,19.05s-3.69,13.22-2.71,18.6c1,5.67,1.74,11.59,3.72,17.45s8.46,27,10,28.82c0,0-15.07,4.92-15.75,11.23s-11,11.25-11,11.25-.69-23.53-1-26.57a257.81,257.81,0,0,0-5.5-29.57c-3.12-12.39-5.17-19.92-2.36-34.44s2.95-43.69,2.5-44.84S214.65,304.76,214.65,304.76Z"/><path fill="#905e3c" fill-rule="evenodd" d="M212.67,298.37s.83,39.55-2.8,59.18L226,330.07l-6.75-6.39s3.33-6.23,3.18-8.43S215.93,297.84,212.67,298.37Z"/><path fill="#262d39" fill-rule="evenodd" d="M210,283.52c.07,0,.06.07.06.14l.31,7.33a12.16,12.16,0,0,0,2.67,6.24,8,8,0,0,0,5.51,3l.33,0a12.62,12.62,0,0,0,1.32-.67,11.94,11.94,0,0,1,1.72-.71,11.39,11.39,0,0,1,3.48-.8,1.78,1.78,0,0,1,1.73,1.21,1,1,0,0,0,1,.62,3.7,3.7,0,0,0,2.24-.33.34.34,0,0,1,.52.17c.24.5.6,1.14.89,1.71a.69.69,0,0,1-.6,1l-.67-.05a.15.15,0,0,0-.14.13c0,1.45-.57,12.51-8.31,13-8.29.62-12.78-4.57-14.94-8.37-3.23-5.8-.5-11.62-.38-16.44.08-4.13.31-7.7.44-8.59,0-.13.15-.19.21-.12Z"/><path fill="#d5654d" fill-rule="evenodd" d="M227.83,302.49s1.79.26,2,1.45-4.34.74-4.34.74l-2.34-.15s-.16-1.53,2.26-1.65S227.83,302.49,227.83,302.49Z"/><polygon fill="#cddfc5" fill-rule="evenodd" points="177.06 392.55 175.18 427.7 166.41 423.87 173.12 393.97 177.06 392.55"/><path fill="#e9a526" fill-rule="evenodd" d="M190.73,315c-.31,4.49-2.61,19.68-1,35a45.15,45.15,0,0,1,0,8.54c-1,12.13-6.21,22.72-7.94,25.13-2.14,3-7.53,14.37-8.29,16.95s-.76,40.06-.76,40.06-7.3-1.81-10.27-8.65-8.36-10.43-8.74-11.27,5.1-24.93,7.3-34.27,7.7-29.11,10.44-33.32c9.63-14.8-5.3-40.33-5.3-40.33,11.12-7.39,25-7.17,27.49-7.06h.39S191,310.54,190.73,315Z"/><circle cx="180.01" cy="353.97" r="1.84" fill="#2e323b"/><circle cx="176.15" cy="370.77" r="1.84" fill="#2e323b"/><circle cx="169.66" cy="386.58" r="1.84" fill="#2e323b"/><path fill="#905e3c" fill-rule="evenodd" d="M190.73,315c-.31,4.49-2.61,19.68-1,35a45.15,45.15,0,0,1,0,8.54c.06-.71-1.32-2.46-1.67-3.11-.6-1.11-1.2-2.22-1.79-3.34-2.2-4.1-4.28-8.27-6.69-12.26-1.09-1.8-2.3-3.5-3.47-5.25-.76-1.15-2.09-3.05-1.2-4.45a1.49,1.49,0,0,1,.64-.52,25.76,25.76,0,0,1,4.2-1.85c1.1-.36,2.55-.53,3.48-1.26,1.19-1-.84-2.78-1.68-3.61-3.39-3.38-.23-6.21,2.38-8.75a126.83,126.83,0,0,1,9.73-8.36h.39S191,310.54,190.73,315Z"/><path fill="#0e3131" fill-rule="evenodd" d="M158.22,398.85a17.74,17.74,0,0,0,3.86-8.2,39.66,39.66,0,0,0,.3-9.37Z"/><circle cx="221.09" cy="359.03" r="1.84" fill="#2e323b"/><circle cx="222.85" cy="375.14" r="1.84" fill="#2e323b"/><circle cx="225.5" cy="391.31" r="1.84" fill="#2e323b"/><path fill="#d5654d" fill-rule="evenodd" d="M239.87,283.75c-1.15-.42-5.08-1.19-7-1.55l.1-.47a10.91,10.91,0,0,1,2.3.15,29.81,29.81,0,0,1,4.51,1.23.42.42,0,0,0,.27,0c.16-.05.2-.28.12-.44a.83.83,0,0,0-.41-.3c-1.77-.84-3.71-1.29-5.53-2a10.7,10.7,0,0,1-3.4-2c-.35-.33-2.19-2.66-.52-2.23a2.68,2.68,0,0,1,.16-.93.65.65,0,0,1,.28-.4.65.65,0,0,1,.49.06c.36.16.68.4,1,.55.18.07,1.17.14,1.22.3a.87.87,0,0,1,.26-1c.65-.51,1.57.29,2.18.5a13.18,13.18,0,0,0,2.25.45c0,.43-.09.73-.52.75-1.47.07-3.15-.22-3.93,0s-3.12-.46-3.17.4,7.71,4.11,9.31,5.15S241.41,284.3,239.87,283.75Z"/><path fill="#df9a79" fill-rule="evenodd" d="M160.18,364.53s-1.67,5.81-1.08,9.16a59.32,59.32,0,0,1,.38,12.44c-.34,4.05-1.15,16.19-1.18,17.7a36.62,36.62,0,0,0,.53,4.11,14.77,14.77,0,0,0,4,7.64c2.3,2.47,3.39,5.77,4.17,9,.16.63,2.15,8.15,2.34,8.15a2.81,2.81,0,0,1-2.52.55,3.16,3.16,0,0,1-1.69-1.66c-1.07-2-1-4.56-2.17-6.4a22.67,22.67,0,0,0-.74,9c.22,2.56,1.11,5.5,0,8a1.78,1.78,0,0,1-1.42,1.1,1.11,1.11,0,0,1-1.13-.9.87.87,0,0,1,0-.28,1.51,1.51,0,0,1-2.4.92c-1.09-.81-.51-2.42-.71-3.55-.72-4.19-5.51-6.58-6.85-10.72-1-3.11-.77-6.48-.71-9.69.23-11.72-1.41-23.22-3.14-34.78-.83-5.58-2.14-12-1-17.65s4.36-18,5.27-21.71c0,0,2.17-10.48,5-13.39,0,0,13.65,10.64,16.76,15.12a47.86,47.86,0,0,1-1.71,4.64C168.06,356,164.32,362.8,160.18,364.53Z"/><g clip-path="url(#c)"><path fill="#d5654d" fill-rule="evenodd" d="M169.17,334.3s-4,22.48-8.4,26.4c0,0-4.7,2.17-3.47,16.87,0,0,.24,18.63-.8,22.15s-.92,14.76,6.87,13.62,15.67-47,15.67-47l3-20.14Z"/></g><path fill="#0e3131" fill-rule="evenodd" d="M156.2,328.37c-1.24.25-3.58,1.52-2.22,2.44,4.56,3.06,15.93,14.5,17.82,16.35.24.23,1-.88,1-1,.88-2.15-3.19-5.43-4.44-6.68-2.11-2.11-4.17-4.26-6.22-6.41-1.4-1.47-3.34-4.48-5.5-4.75A1.74,1.74,0,0,0,156.2,328.37Z"/><path fill="#d5654d" fill-rule="evenodd" d="M166.8,433.25a3.16,3.16,0,0,1-1.69-1.66c-1.07-2-1-4.56-2.17-6.4a22.67,22.67,0,0,0-.74,9c.22,2.56,1.11,5.5,0,8a1.78,1.78,0,0,1-1.42,1.1,1.11,1.11,0,0,1-1.13-.9c.38-.63,1.34-.71,1.77-1.37.61-.91-1.37-15.28,0-16.35s2.36.08,4.33,4.31C166.82,431.18,166.94,432.51,166.8,433.25Z"/></svg>